solid OpenSCAD_Model
  facet normal 0 0 -1
    outer loop
      vertex -15 0 0
      vertex -14.6722 3.11867 0
      vertex -14.6722 -3.11867 0
    endloop
  endfacet
  facet normal 0 0 -1
    outer loop
      vertex -14.6722 -3.11867 0
      vertex -14.6722 3.11867 0
      vertex -13.7032 6.10105 0
    endloop
  endfacet
  facet normal 0 0 -1
    outer loop
      vertex -14.6722 -3.11867 0
      vertex -13.7032 6.10105 0
      vertex -12.1353 8.81678 0
    endloop
  endfacet
  facet normal 0 0 -1
    outer loop
      vertex -14.6722 -3.11867 0
      vertex -12.1353 8.81678 0
      vertex -10.037 11.1472 0
    endloop
  endfacet
  facet normal 0 0 -1
    outer loop
      vertex -14.6722 -3.11867 0
      vertex -10.037 11.1472 0
      vertex -7.5 12.9904 0
    endloop
  endfacet
  facet normal 0 0 -1
    outer loop
      vertex -14.6722 -3.11867 0
      vertex -7.5 12.9904 0
      vertex -4.63525 14.2658 0
    endloop
  endfacet
  facet normal 0 0 -1
    outer loop
      vertex -14.6722 -3.11867 0
      vertex -4.63525 14.2658 0
      vertex -1.56793 14.9178 0
    endloop
  endfacet
  facet normal 0 0 -1
    outer loop
      vertex -14.6722 -3.11867 0
      vertex -1.56793 14.9178 0
      vertex 0 14.9178 0
    endloop
  endfacet
  facet normal 0 0 -1
    outer loop
      vertex 0 14.9178 0
      vertex 0 15 0
      vertex 30 15 0
    endloop
  endfacet
  facet normal 0 0 -1
    outer loop
      vertex 0 14.9178 0
      vertex 30 15 0
      vertex 0 7.5 0
    endloop
  endfacet
  facet normal 0 0 -1
    outer loop
      vertex 0 14.9178 0
      vertex 0 7.5 0
      vertex -1.94114 7.24444 0
    endloop
  endfacet
  facet normal 0 0 -1
    outer loop
      vertex 0 14.9178 0
      vertex -1.94114 7.24444 0
      vertex -3.75 6.49519 0
    endloop
  endfacet
  facet normal 0 0 -1
    outer loop
      vertex 0 14.9178 0
      vertex -3.75 6.49519 0
      vertex -5.3033 5.3033 0
    endloop
  endfacet
  facet normal 0 0 -1
    outer loop
      vertex 0 14.9178 0
      vertex -5.3033 5.3033 0
      vertex -14.6722 -3.11867 0
    endloop
  endfacet
  facet normal 0 0 -1
    outer loop
      vertex -7.24444 1.94114 0
      vertex -14.6722 -3.11867 0
      vertex -6.49519 3.75 0
    endloop
  endfacet
  facet normal 0 0 -1
    outer loop
      vertex -6.49519 3.75 0
      vertex -14.6722 -3.11867 0
      vertex -5.3033 5.3033 0
    endloop
  endfacet
  facet normal 0 0 -1
    outer loop
      vertex -7.24444 -1.94114 0
      vertex -14.6722 -3.11867 0
      vertex -7.5 0 0
    endloop
  endfacet
  facet normal 0 0 -1
    outer loop
      vertex -7.24444 1.94114 0
      vertex -7.5 0 0
      vertex -14.6722 -3.11867 0
    endloop
  endfacet
  facet normal 0 0 -1
    outer loop
      vertex -13.7032 -6.10105 0
      vertex -14.6722 -3.11867 0
      vertex -12.9192 -7.45891 0
    endloop
  endfacet
  facet normal 0 0 -1
    outer loop
      vertex -14.6722 -3.11867 0
      vertex -7.24444 -1.94114 0
      vertex -6.49519 -3.75 0
    endloop
  endfacet
  facet normal 0 0 -1
    outer loop
      vertex -14.6722 -3.11867 0
      vertex -6.49519 -3.75 0
      vertex 8.50481 -29.7308 0
    endloop
  endfacet
  facet normal 0 0 -1
    outer loop
      vertex -14.6722 -3.11867 0
      vertex 8.50481 -29.7308 0
      vertex 2.00962 -33.4808 0
    endloop
  endfacet
  facet normal 0 0 -1
    outer loop
      vertex -12.9192 -7.45891 0
      vertex 2.00962 -33.4808 0
      vertex -12.9904 -7.5 0
    endloop
  endfacet
  facet normal 0 0 -1
    outer loop
      vertex -14.6722 -3.11867 0
      vertex 2.00962 -33.4808 0
      vertex -12.9192 -7.45891 0
    endloop
  endfacet
  facet normal 0 0 -1
    outer loop
      vertex 0 7.5 0
      vertex 30 15 0
      vertex 30 7.5 0
    endloop
  endfacet
  facet normal -0.994522 0.104528 0
    outer loop
      vertex -15 0 0
      vertex -15 0 30
      vertex -14.6722 3.11867 0
    endloop
  endfacet
  facet normal -0.994522 0.104528 0
    outer loop
      vertex -14.6722 3.11867 0
      vertex -15 0 30
      vertex -14.6722 3.11867 30
    endloop
  endfacet
  facet normal -0.994522 -0.104528 0
    outer loop
      vertex -15 0 0
      vertex -14.6722 -3.11867 0
      vertex -15 0 30
    endloop
  endfacet
  facet normal -0.994522 -0.104528 0
    outer loop
      vertex -15 0 30
      vertex -14.6722 -3.11867 0
      vertex -14.6722 -3.11867 30
    endloop
  endfacet
  facet normal -0.951057 -0.309017 0
    outer loop
      vertex -14.6722 -3.11867 0
      vertex -13.7032 -6.10105 0
      vertex -14.6722 -3.11867 30
    endloop
  endfacet
  facet normal -0.951057 -0.309017 0
    outer loop
      vertex -14.6722 -3.11867 30
      vertex -13.7032 -6.10105 0
      vertex -13.7032 -6.10105 30
    endloop
  endfacet
  facet normal -0.866025 -0.5 0
    outer loop
      vertex -13.7032 -6.10105 0
      vertex -12.9192 -7.45891 0
      vertex -13.7032 -6.10105 30
    endloop
  endfacet
  facet normal -0.866025 -0.5 0
    outer loop
      vertex -13.7032 -6.10105 30
      vertex -12.9192 -7.45891 0
      vertex -12.9192 -7.45891 30
    endloop
  endfacet
  facet normal -0.5 0.866025 0
    outer loop
      vertex -12.9904 -7.5 0
      vertex -12.9904 -7.5 30
      vertex -12.9192 -7.45891 0
    endloop
  endfacet
  facet normal -0.5 0.866025 0
    outer loop
      vertex -12.9192 -7.45891 0
      vertex -12.9904 -7.5 30
      vertex -12.9192 -7.45891 30
    endloop
  endfacet
  facet normal -0.866025 -0.5 0
    outer loop
      vertex -12.9904 -7.5 0
      vertex 2.00962 -33.4808 0
      vertex -12.9904 -7.5 30
    endloop
  endfacet
  facet normal -0.866025 -0.5 0
    outer loop
      vertex -12.9904 -7.5 30
      vertex 2.00962 -33.4808 0
      vertex 2.00962 -33.4808 30
    endloop
  endfacet
  facet normal 0.5 -0.866025 0
    outer loop
      vertex 6.6212 -30.8183 7.5
      vertex 2.00962 -33.4808 0
      vertex 8.50481 -29.7308 0
    endloop
  endfacet
  facet normal 0.5 -0.866025 0
    outer loop
      vertex 3.89322 -32.3933 7.5
      vertex 3.89322 -32.3933 30
      vertex 2.00962 -33.4808 30
    endloop
  endfacet
  facet normal 0.5 -0.866025 0
    outer loop
      vertex 8.50481 -29.7308 30
      vertex 6.6212 -30.8183 30
      vertex 8.50481 -29.7308 0
    endloop
  endfacet
  facet normal 0.5 -0.866025 0
    outer loop
      vertex 3.89322 -32.3933 7.5
      vertex 2.00962 -33.4808 0
      vertex 6.6212 -30.8183 7.5
    endloop
  endfacet
  facet normal 0.5 -0.866025 0
    outer loop
      vertex 2.00962 -33.4808 30
      vertex 2.00962 -33.4808 0
      vertex 3.89322 -32.3933 7.5
    endloop
  endfacet
  facet normal 0.5 -0.866025 0
    outer loop
      vertex 6.6212 -30.8183 30
      vertex 6.6212 -30.8183 7.5
      vertex 8.50481 -29.7308 0
    endloop
  endfacet
  facet normal 0.866025 0.5 0
    outer loop
      vertex 8.50481 -29.7308 0
      vertex -6.49519 -3.75 0
      vertex -6.49519 -3.75 30
    endloop
  endfacet
  facet normal 0.866025 0.5 0
    outer loop
      vertex 8.50481 -29.7308 30
      vertex 8.50481 -29.7308 0
      vertex -6.49519 -3.75 30
    endloop
  endfacet
  facet normal 0.92388 0.382683 0
    outer loop
      vertex -7.24444 -1.94114 30
      vertex -6.49519 -3.75 30
      vertex -6.49519 -3.75 0
    endloop
  endfacet
  facet normal 0.92388 0.382683 0
    outer loop
      vertex -7.24444 -1.94114 0
      vertex -7.24444 -1.94114 30
      vertex -6.49519 -3.75 0
    endloop
  endfacet
  facet normal 0.991445 0.130526 0
    outer loop
      vertex -7.5 0 30
      vertex -7.24444 -1.94114 30
      vertex -7.24444 -1.94114 0
    endloop
  endfacet
  facet normal 0.991445 0.130526 0
    outer loop
      vertex -7.5 0 0
      vertex -7.5 0 30
      vertex -7.24444 -1.94114 0
    endloop
  endfacet
  facet normal 0.991445 -0.130526 0
    outer loop
      vertex -7.24444 1.94114 0
      vertex -7.24444 1.94114 30
      vertex -7.5 0 30
    endloop
  endfacet
  facet normal 0.991445 -0.130526 0
    outer loop
      vertex -7.5 0 0
      vertex -7.24444 1.94114 0
      vertex -7.5 0 30
    endloop
  endfacet
  facet normal 0.92388 -0.382683 0
    outer loop
      vertex -6.49519 3.75 0
      vertex -6.49519 3.75 30
      vertex -7.24444 1.94114 30
    endloop
  endfacet
  facet normal 0.92388 -0.382683 0
    outer loop
      vertex -7.24444 1.94114 0
      vertex -6.49519 3.75 0
      vertex -7.24444 1.94114 30
    endloop
  endfacet
  facet normal 0.793353 -0.608762 0
    outer loop
      vertex -5.3033 5.3033 0
      vertex -5.3033 5.3033 30
      vertex -6.49519 3.75 30
    endloop
  endfacet
  facet normal 0.793353 -0.608762 0
    outer loop
      vertex -6.49519 3.75 0
      vertex -5.3033 5.3033 0
      vertex -6.49519 3.75 30
    endloop
  endfacet
  facet normal 0.608762 -0.793353 0
    outer loop
      vertex -3.75 6.49519 0
      vertex -3.75 6.49519 30
      vertex -5.3033 5.3033 30
    endloop
  endfacet
  facet normal 0.608762 -0.793353 0
    outer loop
      vertex -5.3033 5.3033 0
      vertex -3.75 6.49519 0
      vertex -5.3033 5.3033 30
    endloop
  endfacet
  facet normal 0.382683 -0.92388 0
    outer loop
      vertex -1.94114 7.24444 0
      vertex -1.94114 7.24444 30
      vertex -3.75 6.49519 30
    endloop
  endfacet
  facet normal 0.382683 -0.92388 0
    outer loop
      vertex -3.75 6.49519 0
      vertex -1.94114 7.24444 0
      vertex -3.75 6.49519 30
    endloop
  endfacet
  facet normal 0.130526 -0.991445 0
    outer loop
      vertex 0 7.5 0
      vertex 0 7.5 30
      vertex -1.94114 7.24444 30
    endloop
  endfacet
  facet normal 0.130526 -0.991445 0
    outer loop
      vertex -1.94114 7.24444 0
      vertex 0 7.5 0
      vertex -1.94114 7.24444 30
    endloop
  endfacet
  facet normal 0 -1 0
    outer loop
      vertex 0 7.5 30
      vertex 0 7.5 0
      vertex 30 7.5 0
    endloop
  endfacet
  facet normal 0 -1 0
    outer loop
      vertex 30 7.5 30
      vertex 0 7.5 30
      vertex 30 7.5 0
    endloop
  endfacet
  facet normal 1 0 0
    outer loop
      vertex 30 12.825 7.5
      vertex 30 7.5 0
      vertex 30 15 0
    endloop
  endfacet
  facet normal 1 0 0
    outer loop
      vertex 30 9.675 7.5
      vertex 30 9.675 30
      vertex 30 7.5 30
    endloop
  endfacet
  facet normal 1 0 0
    outer loop
      vertex 30 15 30
      vertex 30 12.825 30
      vertex 30 15 0
    endloop
  endfacet
  facet normal 1 0 0
    outer loop
      vertex 30 9.675 7.5
      vertex 30 7.5 0
      vertex 30 12.825 7.5
    endloop
  endfacet
  facet normal 1 0 0
    outer loop
      vertex 30 7.5 30
      vertex 30 7.5 0
      vertex 30 9.675 7.5
    endloop
  endfacet
  facet normal 1 0 0
    outer loop
      vertex 30 12.825 30
      vertex 30 12.825 7.5
      vertex 30 15 0
    endloop
  endfacet
  facet normal 0 1 0
    outer loop
      vertex 0 15 0
      vertex 0 15 30
      vertex 30 15 0
    endloop
  endfacet
  facet normal 0 1 0
    outer loop
      vertex 30 15 0
      vertex 0 15 30
      vertex 30 15 30
    endloop
  endfacet
  facet normal -1 0 0
    outer loop
      vertex 0 14.9178 0
      vertex 0 14.9178 30
      vertex 0 15 0
    endloop
  endfacet
  facet normal -1 0 0
    outer loop
      vertex 0 15 0
      vertex 0 14.9178 30
      vertex 0 15 30
    endloop
  endfacet
  facet normal 0 1 0
    outer loop
      vertex -1.56793 14.9178 0
      vertex -1.56793 14.9178 30
      vertex 0 14.9178 0
    endloop
  endfacet
  facet normal 0 1 0
    outer loop
      vertex 0 14.9178 0
      vertex -1.56793 14.9178 30
      vertex 0 14.9178 30
    endloop
  endfacet
  facet normal -0.207911 0.978148 0
    outer loop
      vertex -4.63525 14.2658 0
      vertex -4.63525 14.2658 30
      vertex -1.56793 14.9178 0
    endloop
  endfacet
  facet normal -0.207911 0.978148 0
    outer loop
      vertex -1.56793 14.9178 0
      vertex -4.63525 14.2658 30
      vertex -1.56793 14.9178 30
    endloop
  endfacet
  facet normal -0.406737 0.913545 0
    outer loop
      vertex -7.5 12.9904 0
      vertex -7.5 12.9904 30
      vertex -4.63525 14.2658 0
    endloop
  endfacet
  facet normal -0.406737 0.913545 0
    outer loop
      vertex -4.63525 14.2658 0
      vertex -7.5 12.9904 30
      vertex -4.63525 14.2658 30
    endloop
  endfacet
  facet normal -0.587785 0.809017 0
    outer loop
      vertex -10.037 11.1472 0
      vertex -10.037 11.1472 30
      vertex -7.5 12.9904 0
    endloop
  endfacet
  facet normal -0.587785 0.809017 0
    outer loop
      vertex -7.5 12.9904 0
      vertex -10.037 11.1472 30
      vertex -7.5 12.9904 30
    endloop
  endfacet
  facet normal -0.743145 0.669131 0
    outer loop
      vertex -12.1353 8.81678 0
      vertex -12.1353 8.81678 30
      vertex -10.037 11.1472 0
    endloop
  endfacet
  facet normal -0.743145 0.669131 0
    outer loop
      vertex -10.037 11.1472 0
      vertex -12.1353 8.81678 30
      vertex -10.037 11.1472 30
    endloop
  endfacet
  facet normal -0.866025 0.5 0
    outer loop
      vertex -13.7032 6.10105 0
      vertex -13.7032 6.10105 30
      vertex -12.1353 8.81678 0
    endloop
  endfacet
  facet normal -0.866025 0.5 0
    outer loop
      vertex -12.1353 8.81678 0
      vertex -13.7032 6.10105 30
      vertex -12.1353 8.81678 30
    endloop
  endfacet
  facet normal -0.951057 0.309017 0
    outer loop
      vertex -14.6722 3.11867 0
      vertex -14.6722 3.11867 30
      vertex -13.7032 6.10105 0
    endloop
  endfacet
  facet normal -0.951057 0.309017 0
    outer loop
      vertex -13.7032 6.10105 0
      vertex -14.6722 3.11867 30
      vertex -13.7032 6.10105 30
    endloop
  endfacet
  facet normal 0 0 1
    outer loop
      vertex -14.6722 3.11867 30
      vertex -15 0 30
      vertex -14.6722 -3.11867 30
    endloop
  endfacet
  facet normal 0 0 1
    outer loop
      vertex -12.9192 -7.45891 30
      vertex -14.6722 3.11867 30
      vertex -13.7032 -6.10105 30
    endloop
  endfacet
  facet normal 0 0 1
    outer loop
      vertex -13.7032 -6.10105 30
      vertex -14.6722 3.11867 30
      vertex -14.6722 -3.11867 30
    endloop
  endfacet
  facet normal 0 0 1
    outer loop
      vertex -11.1068 -6.4125 30
      vertex -14.6722 3.11867 30
      vertex -12.9192 -7.45891 30
    endloop
  endfacet
  facet normal 0 0 1
    outer loop
      vertex 2.00962 -33.4808 30
      vertex -12.9192 -7.45891 30
      vertex -12.9904 -7.5 30
    endloop
  endfacet
  facet normal 0 0 1
    outer loop
      vertex -11.1068 -6.4125 30
      vertex -8.3788 -4.8375 30
      vertex -14.6722 3.11867 30
    endloop
  endfacet
  facet normal 0 0 1
    outer loop
      vertex 2.00962 -33.4808 30
      vertex -11.1068 -6.4125 30
      vertex -12.9192 -7.45891 30
    endloop
  endfacet
  facet normal 0 0 1
    outer loop
      vertex -6.49519 -3.75 30
      vertex -14.6722 3.11867 30
      vertex -8.3788 -4.8375 30
    endloop
  endfacet
  facet normal 0 0 1
    outer loop
      vertex 8.50481 -29.7308 30
      vertex -8.3788 -4.8375 30
      vertex 6.6212 -30.8183 30
    endloop
  endfacet
  facet normal 0 0 1
    outer loop
      vertex -6.49519 -3.75 30
      vertex -8.3788 -4.8375 30
      vertex 8.50481 -29.7308 30
    endloop
  endfacet
  facet normal 0 0 1
    outer loop
      vertex -7.24444 -1.94114 30
      vertex -14.6722 3.11867 30
      vertex -6.49519 -3.75 30
    endloop
  endfacet
  facet normal 0 0 1
    outer loop
      vertex -7.5 0 30
      vertex -14.6722 3.11867 30
      vertex -7.24444 -1.94114 30
    endloop
  endfacet
  facet normal 0 0 1
    outer loop
      vertex -7.24444 1.94114 30
      vertex -14.6722 3.11867 30
      vertex -7.5 0 30
    endloop
  endfacet
  facet normal 0 0 1
    outer loop
      vertex -6.49519 3.75 30
      vertex -14.6722 3.11867 30
      vertex -7.24444 1.94114 30
    endloop
  endfacet
  facet normal 0 0 1
    outer loop
      vertex -5.3033 5.3033 30
      vertex -14.6722 3.11867 30
      vertex -6.49519 3.75 30
    endloop
  endfacet
  facet normal 0 0 1
    outer loop
      vertex -3.75 6.49519 30
      vertex -14.6722 3.11867 30
      vertex -5.3033 5.3033 30
    endloop
  endfacet
  facet normal 0 0 1
    outer loop
      vertex -1.94114 7.24444 30
      vertex -14.6722 3.11867 30
      vertex -3.75 6.49519 30
    endloop
  endfacet
  facet normal 0 0 1
    outer loop
      vertex 0 9.675 30
      vertex -14.6722 3.11867 30
      vertex -1.94114 7.24444 30
    endloop
  endfacet
  facet normal 0 0 1
    outer loop
      vertex 0 9.675 30
      vertex -1.94114 7.24444 30
      vertex 0 7.5 30
    endloop
  endfacet
  facet normal 0 0 1
    outer loop
      vertex 30 9.675 30
      vertex 0 7.5 30
      vertex 30 7.5 30
    endloop
  endfacet
  facet normal 0 0 1
    outer loop
      vertex 0 9.675 30
      vertex 0 7.5 30
      vertex 30 9.675 30
    endloop
  endfacet
  facet normal 0 0 1
    outer loop
      vertex 0 12.825 30
      vertex -14.6722 3.11867 30
      vertex 0 9.675 30
    endloop
  endfacet
  facet normal 0 0 1
    outer loop
      vertex 0 14.9178 30
      vertex -14.6722 3.11867 30
      vertex 0 12.825 30
    endloop
  endfacet
  facet normal 0 0 1
    outer loop
      vertex 30 15 30
      vertex 0 12.825 30
      vertex 30 12.825 30
    endloop
  endfacet
  facet normal 0 0 1
    outer loop
      vertex 0 14.9178 30
      vertex 0 12.825 30
      vertex 30 15 30
    endloop
  endfacet
  facet normal 0 0 1
    outer loop
      vertex 0 15 30
      vertex 0 14.9178 30
      vertex 30 15 30
    endloop
  endfacet
  facet normal 0 0 1
    outer loop
      vertex -4.63525 14.2658 30
      vertex -14.6722 3.11867 30
      vertex -1.56793 14.9178 30
    endloop
  endfacet
  facet normal 0 0 1
    outer loop
      vertex -7.5 12.9904 30
      vertex -14.6722 3.11867 30
      vertex -4.63525 14.2658 30
    endloop
  endfacet
  facet normal 0 0 1
    outer loop
      vertex -10.037 11.1472 30
      vertex -14.6722 3.11867 30
      vertex -7.5 12.9904 30
    endloop
  endfacet
  facet normal 0 0 1
    outer loop
      vertex -12.1353 8.81678 30
      vertex -14.6722 3.11867 30
      vertex -10.037 11.1472 30
    endloop
  endfacet
  facet normal 0 0 1
    outer loop
      vertex -13.7032 6.10105 30
      vertex -14.6722 3.11867 30
      vertex -12.1353 8.81678 30
    endloop
  endfacet
  facet normal 0 0 1
    outer loop
      vertex 0 14.9178 30
      vertex -1.56793 14.9178 30
      vertex -14.6722 3.11867 30
    endloop
  endfacet
  facet normal 0 0 1
    outer loop
      vertex 3.89322 -32.3933 30
      vertex -11.1068 -6.4125 30
      vertex 2.00962 -33.4808 30
    endloop
  endfacet
  facet normal 0.866025 0.5 0
    outer loop
      vertex -11.1068 -6.4125 30
      vertex 3.89322 -32.3933 30
      vertex 3.89322 -32.3933 7.5
    endloop
  endfacet
  facet normal 0.866025 0.5 0
    outer loop
      vertex -11.1068 -6.4125 7.5
      vertex -11.1068 -6.4125 30
      vertex 3.89322 -32.3933 7.5
    endloop
  endfacet
  facet normal 0 0 1
    outer loop
      vertex 3.89322 -32.3933 7.5
      vertex 6.6212 -30.8183 7.5
      vertex -8.3788 -4.8375 7.5
    endloop
  endfacet
  facet normal 0 0 1
    outer loop
      vertex -11.1068 -6.4125 7.5
      vertex 3.89322 -32.3933 7.5
      vertex -8.3788 -4.8375 7.5
    endloop
  endfacet
  facet normal -0.866025 -0.5 0
    outer loop
      vertex 6.6212 -30.8183 30
      vertex -8.3788 -4.8375 30
      vertex 6.6212 -30.8183 7.5
    endloop
  endfacet
  facet normal -0.866025 -0.5 0
    outer loop
      vertex 6.6212 -30.8183 7.5
      vertex -8.3788 -4.8375 30
      vertex -8.3788 -4.8375 7.5
    endloop
  endfacet
  facet normal 0 1 0
    outer loop
      vertex 30 9.675 30
      vertex 30 9.675 7.5
      vertex 0 9.675 30
    endloop
  endfacet
  facet normal 0 1 0
    outer loop
      vertex 0 9.675 30
      vertex 30 9.675 7.5
      vertex 0 9.675 7.5
    endloop
  endfacet
  facet normal 0 0 1
    outer loop
      vertex 30 9.675 7.5
      vertex 30 12.825 7.5
      vertex 0 12.825 7.5
    endloop
  endfacet
  facet normal 0 0 1
    outer loop
      vertex 0 9.675 7.5
      vertex 30 9.675 7.5
      vertex 0 12.825 7.5
    endloop
  endfacet
  facet normal 0 -1 0
    outer loop
      vertex 30 12.825 7.5
      vertex 30 12.825 30
      vertex 0 12.825 30
    endloop
  endfacet
  facet normal 0 -1 0
    outer loop
      vertex 0 12.825 7.5
      vertex 30 12.825 7.5
      vertex 0 12.825 30
    endloop
  endfacet
  facet normal 1 0 0
    outer loop
      vertex 0 12.825 7.5
      vertex 0 12.825 30
      vertex 0 9.675 30
    endloop
  endfacet
  facet normal 1 0 0
    outer loop
      vertex 0 9.675 7.5
      vertex 0 12.825 7.5
      vertex 0 9.675 30
    endloop
  endfacet
  facet normal 0.5 -0.866025 0
    outer loop
      vertex -8.3788 -4.8375 7.5
      vertex -8.3788 -4.8375 30
      vertex -11.1068 -6.4125 30
    endloop
  endfacet
  facet normal 0.5 -0.866025 0
    outer loop
      vertex -11.1068 -6.4125 7.5
      vertex -8.3788 -4.8375 7.5
      vertex -11.1068 -6.4125 30
    endloop
  endfacet
endsolid OpenSCAD_Model
