solid OpenSCAD_Model
  facet normal -1 0 0
    outer loop
      vertex -12.7 23.4 1.8
      vertex -12.7 23.4 -1.8
      vertex -12.7 9.99441 1.8
    endloop
  endfacet
  facet normal -1 0 0
    outer loop
      vertex -12.7 5.2 -1.8
      vertex -12.7 5.2 5.4
      vertex -12.7 9.99441 1.8
    endloop
  endfacet
  facet normal -1 0 0
    outer loop
      vertex -12.7 5.2 -1.8
      vertex -12.7 9.99441 1.8
      vertex -12.7 23.4 -1.8
    endloop
  endfacet
  facet normal -1 0 0
    outer loop
      vertex -12.7 9.99441 1.8
      vertex -12.7 5.2 5.4
      vertex -12.7 9.99441 5.4
    endloop
  endfacet
  facet normal -0.994522 -0.104528 0
    outer loop
      vertex -12.7 5.2 -1.8
      vertex -12.4225 2.55952 -1.8
      vertex -12.7 5.2 5.4
    endloop
  endfacet
  facet normal -0.994522 -0.104528 0
    outer loop
      vertex -12.7 5.2 5.4
      vertex -12.4225 2.55952 -1.8
      vertex -12.4225 2.55952 5.4
    endloop
  endfacet
  facet normal 0 0 -1
    outer loop
      vertex -12.7 5.2 -1.8
      vertex -12.7 23.4 -1.8
      vertex -12.4225 2.55952 -1.8
    endloop
  endfacet
  facet normal 0 0 -1
    outer loop
      vertex -12.4225 2.55952 -1.8
      vertex -12.7 23.4 -1.8
      vertex 12.7 23.4 -1.8
    endloop
  endfacet
  facet normal 0 0 -1
    outer loop
      vertex -12.4225 2.55952 -1.8
      vertex 12.7 23.4 -1.8
      vertex 12.7 5.2 -1.8
    endloop
  endfacet
  facet normal 0 0 -1
    outer loop
      vertex -12.4225 2.55952 -1.8
      vertex 12.7 5.2 -1.8
      vertex 12.4225 2.55952 -1.8
    endloop
  endfacet
  facet normal 0 0 -1
    outer loop
      vertex 0.8625 1.49389 -1.8
      vertex 12.4225 2.55952 -1.8
      vertex 11.602 0.034445 -1.8
    endloop
  endfacet
  facet normal 0 0 -1
    outer loop
      vertex 1.725 0 -1.8
      vertex 11.602 0.034445 -1.8
      vertex 10.2745 -2.26487 -1.8
    endloop
  endfacet
  facet normal 0 0 -1
    outer loop
      vertex 1.49389 -0.8625 -1.8
      vertex 10.2745 -2.26487 -1.8
      vertex 8.49796 -4.23794 -1.8
    endloop
  endfacet
  facet normal 0 0 -1
    outer loop
      vertex -0.8625 -1.49389 -1.8
      vertex 8.49796 -4.23794 -1.8
      vertex 6.35 -5.79852 -1.8
    endloop
  endfacet
  facet normal 0 0 -1
    outer loop
      vertex -12.4225 2.55952 -1.8
      vertex 6.35 -5.79852 -1.8
      vertex 3.92452 -6.87842 -1.8
    endloop
  endfacet
  facet normal 0 0 -1
    outer loop
      vertex -12.4225 2.55952 -1.8
      vertex 3.92452 -6.87842 -1.8
      vertex 1.32751 -7.43043 -1.8
    endloop
  endfacet
  facet normal 0 0 -1
    outer loop
      vertex -12.4225 2.55952 -1.8
      vertex 1.32751 -7.43043 -1.8
      vertex -1.32751 -7.43043 -1.8
    endloop
  endfacet
  facet normal 0 0 -1
    outer loop
      vertex -12.4225 2.55952 -1.8
      vertex -1.32751 -7.43043 -1.8
      vertex -3.92452 -6.87842 -1.8
    endloop
  endfacet
  facet normal 0 0 -1
    outer loop
      vertex -12.4225 2.55952 -1.8
      vertex -3.92452 -6.87842 -1.8
      vertex -6.35 -5.79852 -1.8
    endloop
  endfacet
  facet normal 0 0 -1
    outer loop
      vertex -12.4225 2.55952 -1.8
      vertex -6.35 -5.79852 -1.8
      vertex -8.49796 -4.23794 -1.8
    endloop
  endfacet
  facet normal 0 0 -1
    outer loop
      vertex -12.4225 2.55952 -1.8
      vertex -8.49796 -4.23794 -1.8
      vertex -10.2745 -2.26487 -1.8
    endloop
  endfacet
  facet normal 0 0 -1
    outer loop
      vertex -12.4225 2.55952 -1.8
      vertex -10.2745 -2.26487 -1.8
      vertex -11.602 0.034445 -1.8
    endloop
  endfacet
  facet normal 0 0 -1
    outer loop
      vertex -0.8625 -1.49389 -1.8
      vertex -12.4225 2.55952 -1.8
      vertex -1.49389 -0.8625 -1.8
    endloop
  endfacet
  facet normal 0 0 -1
    outer loop
      vertex -12.4225 2.55952 -1.8
      vertex -1.725 0 -1.8
      vertex -1.49389 -0.8625 -1.8
    endloop
  endfacet
  facet normal 0 0 -1
    outer loop
      vertex 0 -1.725 -1.8
      vertex 8.49796 -4.23794 -1.8
      vertex -0.8625 -1.49389 -1.8
    endloop
  endfacet
  facet normal 0 0 -1
    outer loop
      vertex -12.4225 2.55952 -1.8
      vertex -0.8625 -1.49389 -1.8
      vertex 6.35 -5.79852 -1.8
    endloop
  endfacet
  facet normal 0 0 -1
    outer loop
      vertex 0.8625 -1.49389 -1.8
      vertex 8.49796 -4.23794 -1.8
      vertex 0 -1.725 -1.8
    endloop
  endfacet
  facet normal 0 0 -1
    outer loop
      vertex 1.49389 -0.8625 -1.8
      vertex 8.49796 -4.23794 -1.8
      vertex 0.8625 -1.49389 -1.8
    endloop
  endfacet
  facet normal 0 0 -1
    outer loop
      vertex 1.725 0 -1.8
      vertex 10.2745 -2.26487 -1.8
      vertex 1.49389 -0.8625 -1.8
    endloop
  endfacet
  facet normal 0 0 -1
    outer loop
      vertex 1.49389 0.8625 -1.8
      vertex 11.602 0.034445 -1.8
      vertex 1.725 0 -1.8
    endloop
  endfacet
  facet normal 0 0 -1
    outer loop
      vertex 0 1.725 -1.8
      vertex 12.4225 2.55952 -1.8
      vertex 0.8625 1.49389 -1.8
    endloop
  endfacet
  facet normal 0 0 -1
    outer loop
      vertex -0.8625 1.49389 -1.8
      vertex -12.4225 2.55952 -1.8
      vertex 0 1.725 -1.8
    endloop
  endfacet
  facet normal 0 0 -1
    outer loop
      vertex -12.4225 2.55952 -1.8
      vertex 12.4225 2.55952 -1.8
      vertex 0 1.725 -1.8
    endloop
  endfacet
  facet normal 0 0 -1
    outer loop
      vertex -1.49389 0.8625 -1.8
      vertex -12.4225 2.55952 -1.8
      vertex -0.8625 1.49389 -1.8
    endloop
  endfacet
  facet normal 0 0 -1
    outer loop
      vertex -1.725 0 -1.8
      vertex -12.4225 2.55952 -1.8
      vertex -1.49389 0.8625 -1.8
    endloop
  endfacet
  facet normal 0 0 -1
    outer loop
      vertex 0.8625 1.49389 -1.8
      vertex 11.602 0.034445 -1.8
      vertex 1.49389 0.8625 -1.8
    endloop
  endfacet
  facet normal 0 1 0
    outer loop
      vertex -12.7 23.4 -1.8
      vertex -12.7 23.4 1.8
      vertex 12.7 23.4 -1.8
    endloop
  endfacet
  facet normal 0 1 0
    outer loop
      vertex 12.7 23.4 -1.8
      vertex -12.7 23.4 1.8
      vertex 12.7 23.4 1.8
    endloop
  endfacet
  facet normal 0 0 1
    outer loop
      vertex -10.6533 9.67025 1.8
      vertex -5.33719 9.16773 1.8
      vertex 0 9 1.8
    endloop
  endfacet
  facet normal 0 0 1
    outer loop
      vertex 10.6533 9.67025 1.8
      vertex -10.6533 9.67025 1.8
      vertex 5.33719 9.16773 1.8
    endloop
  endfacet
  facet normal 0 0 1
    outer loop
      vertex 5.33719 9.16773 1.8
      vertex -10.6533 9.67025 1.8
      vertex 0 9 1.8
    endloop
  endfacet
  facet normal 0 0 1
    outer loop
      vertex 12.7 9.99441 1.8
      vertex -10.6533 9.67025 1.8
      vertex 10.6533 9.67025 1.8
    endloop
  endfacet
  facet normal 0 0 1
    outer loop
      vertex 12.7 23.4 1.8
      vertex -10.6533 9.67025 1.8
      vertex 12.7 9.99441 1.8
    endloop
  endfacet
  facet normal 0 0 1
    outer loop
      vertex -12.7 23.4 1.8
      vertex -10.6533 9.67025 1.8
      vertex 12.7 23.4 1.8
    endloop
  endfacet
  facet normal 0 0 1
    outer loop
      vertex -12.7 9.99441 1.8
      vertex -10.6533 9.67025 1.8
      vertex -12.7 23.4 1.8
    endloop
  endfacet
  facet normal 0.156435 0.987688 0
    outer loop
      vertex -10.6533 9.67025 5.4
      vertex -10.6533 9.67025 1.8
      vertex -12.7 9.99441 5.4
    endloop
  endfacet
  facet normal 0.156435 0.987688 0
    outer loop
      vertex -12.7 9.99441 5.4
      vertex -10.6533 9.67025 1.8
      vertex -12.7 9.99441 1.8
    endloop
  endfacet
  facet normal 0 0 1
    outer loop
      vertex -12.7 9.99441 5.4
      vertex -12.7 5.2 5.4
      vertex -12.4225 2.55952 5.4
    endloop
  endfacet
  facet normal 0 0 1
    outer loop
      vertex -10.2745 -2.26487 5.4
      vertex -12.7 9.99441 5.4
      vertex -11.602 0.034445 5.4
    endloop
  endfacet
  facet normal 0 0 1
    outer loop
      vertex -11.602 0.034445 5.4
      vertex -12.7 9.99441 5.4
      vertex -12.4225 2.55952 5.4
    endloop
  endfacet
  facet normal 0 0 1
    outer loop
      vertex -8.49796 -4.23794 5.4
      vertex -12.7 9.99441 5.4
      vertex -10.2745 -2.26487 5.4
    endloop
  endfacet
  facet normal 0 0 1
    outer loop
      vertex -6.35 -5.79852 5.4
      vertex -12.7 9.99441 5.4
      vertex -8.49796 -4.23794 5.4
    endloop
  endfacet
  facet normal 0 0 1
    outer loop
      vertex -3.92452 -6.87842 5.4
      vertex -12.7 9.99441 5.4
      vertex -6.35 -5.79852 5.4
    endloop
  endfacet
  facet normal 0 0 1
    outer loop
      vertex -1.32751 -7.43043 5.4
      vertex -12.7 9.99441 5.4
      vertex -3.92452 -6.87842 5.4
    endloop
  endfacet
  facet normal 0 0 1
    outer loop
      vertex 1.32751 -7.43043 5.4
      vertex -12.7 9.99441 5.4
      vertex -1.32751 -7.43043 5.4
    endloop
  endfacet
  facet normal 0 0 1
    outer loop
      vertex -2.59808 -1.5 5.4
      vertex -12.7 9.99441 5.4
      vertex 1.32751 -7.43043 5.4
    endloop
  endfacet
  facet normal 0 0 1
    outer loop
      vertex 2.59808 -1.5 5.4
      vertex 1.5 -2.59808 5.4
      vertex 6.35 -5.79852 5.4
    endloop
  endfacet
  facet normal 0 0 1
    outer loop
      vertex 2.59808 1.5 5.4
      vertex 3 0 5.4
      vertex 10.2745 -2.26487 5.4
    endloop
  endfacet
  facet normal 0 0 1
    outer loop
      vertex 12.4225 2.55952 5.4
      vertex -12.7 9.99441 5.4
      vertex 11.602 0.034445 5.4
    endloop
  endfacet
  facet normal 0 0 1
    outer loop
      vertex 12.7 5.2 5.4
      vertex -12.7 9.99441 5.4
      vertex 12.4225 2.55952 5.4
    endloop
  endfacet
  facet normal 0 0 1
    outer loop
      vertex -10.6533 9.67025 5.4
      vertex -12.7 9.99441 5.4
      vertex 12.7 5.2 5.4
    endloop
  endfacet
  facet normal 0 0 1
    outer loop
      vertex 12.7 9.99441 5.4
      vertex 10.6533 9.67025 5.4
      vertex 12.7 5.2 5.4
    endloop
  endfacet
  facet normal 0 0 1
    outer loop
      vertex 10.6533 9.67025 5.4
      vertex 5.33719 9.16773 5.4
      vertex 12.7 5.2 5.4
    endloop
  endfacet
  facet normal 0 0 1
    outer loop
      vertex 5.33719 9.16773 5.4
      vertex 0 9 5.4
      vertex 12.7 5.2 5.4
    endloop
  endfacet
  facet normal 0 0 1
    outer loop
      vertex 0 9 5.4
      vertex -5.33719 9.16773 5.4
      vertex 12.7 5.2 5.4
    endloop
  endfacet
  facet normal 0 0 1
    outer loop
      vertex -5.33719 9.16773 5.4
      vertex -10.6533 9.67025 5.4
      vertex 12.7 5.2 5.4
    endloop
  endfacet
  facet normal 0 0 1
    outer loop
      vertex -1.5 -2.59808 5.4
      vertex -2.59808 -1.5 5.4
      vertex 1.32751 -7.43043 5.4
    endloop
  endfacet
  facet normal 0 0 1
    outer loop
      vertex -3 0 5.4
      vertex -12.7 9.99441 5.4
      vertex -2.59808 -1.5 5.4
    endloop
  endfacet
  facet normal 0 0 1
    outer loop
      vertex 1.5 -2.59808 5.4
      vertex 0 -3 5.4
      vertex 3.92452 -6.87842 5.4
    endloop
  endfacet
  facet normal 0 0 1
    outer loop
      vertex 0 3 5.4
      vertex -12.7 9.99441 5.4
      vertex -1.5 2.59808 5.4
    endloop
  endfacet
  facet normal 0 0 1
    outer loop
      vertex 1.5 2.59808 5.4
      vertex 2.59808 1.5 5.4
      vertex 10.2745 -2.26487 5.4
    endloop
  endfacet
  facet normal 0 0 1
    outer loop
      vertex 11.602 0.034445 5.4
      vertex 1.5 2.59808 5.4
      vertex 10.2745 -2.26487 5.4
    endloop
  endfacet
  facet normal 0 0 1
    outer loop
      vertex 11.602 0.034445 5.4
      vertex -12.7 9.99441 5.4
      vertex 1.5 2.59808 5.4
    endloop
  endfacet
  facet normal 0 0 1
    outer loop
      vertex 3 0 5.4
      vertex 2.59808 -1.5 5.4
      vertex 8.49796 -4.23794 5.4
    endloop
  endfacet
  facet normal 0 0 1
    outer loop
      vertex 10.2745 -2.26487 5.4
      vertex 3 0 5.4
      vertex 8.49796 -4.23794 5.4
    endloop
  endfacet
  facet normal 0 0 1
    outer loop
      vertex 8.49796 -4.23794 5.4
      vertex 2.59808 -1.5 5.4
      vertex 6.35 -5.79852 5.4
    endloop
  endfacet
  facet normal 0 0 1
    outer loop
      vertex 0 3 5.4
      vertex 1.5 2.59808 5.4
      vertex -12.7 9.99441 5.4
    endloop
  endfacet
  facet normal 0 0 1
    outer loop
      vertex 6.35 -5.79852 5.4
      vertex 1.5 -2.59808 5.4
      vertex 3.92452 -6.87842 5.4
    endloop
  endfacet
  facet normal 0 0 1
    outer loop
      vertex 3.92452 -6.87842 5.4
      vertex -1.5 -2.59808 5.4
      vertex 1.32751 -7.43043 5.4
    endloop
  endfacet
  facet normal 0 0 1
    outer loop
      vertex 0 -3 5.4
      vertex -1.5 -2.59808 5.4
      vertex 3.92452 -6.87842 5.4
    endloop
  endfacet
  facet normal 0 0 1
    outer loop
      vertex -3 0 5.4
      vertex -2.59808 1.5 5.4
      vertex -12.7 9.99441 5.4
    endloop
  endfacet
  facet normal 0 0 1
    outer loop
      vertex -2.59808 1.5 5.4
      vertex -1.5 2.59808 5.4
      vertex -12.7 9.99441 5.4
    endloop
  endfacet
  facet normal -0.951056 -0.309017 0
    outer loop
      vertex -12.4225 2.55952 -1.8
      vertex -11.602 0.034445 -1.8
      vertex -12.4225 2.55952 5.4
    endloop
  endfacet
  facet normal -0.951056 -0.309017 0
    outer loop
      vertex -12.4225 2.55952 5.4
      vertex -11.602 0.034445 -1.8
      vertex -11.602 0.034445 5.4
    endloop
  endfacet
  facet normal -0.866026 -0.5 0
    outer loop
      vertex -11.602 0.034445 -1.8
      vertex -10.2745 -2.26487 -1.8
      vertex -11.602 0.034445 5.4
    endloop
  endfacet
  facet normal -0.866026 -0.5 0
    outer loop
      vertex -11.602 0.034445 5.4
      vertex -10.2745 -2.26487 -1.8
      vertex -10.2745 -2.26487 5.4
    endloop
  endfacet
  facet normal -0.743145 -0.669131 0
    outer loop
      vertex -10.2745 -2.26487 -1.8
      vertex -8.49796 -4.23794 -1.8
      vertex -10.2745 -2.26487 5.4
    endloop
  endfacet
  facet normal -0.743145 -0.669131 0
    outer loop
      vertex -10.2745 -2.26487 5.4
      vertex -8.49796 -4.23794 -1.8
      vertex -8.49796 -4.23794 5.4
    endloop
  endfacet
  facet normal -0.587785 -0.809017 0
    outer loop
      vertex -8.49796 -4.23794 5.4
      vertex -8.49796 -4.23794 -1.8
      vertex -6.35 -5.79852 -1.8
    endloop
  endfacet
  facet normal -0.587785 -0.809017 0
    outer loop
      vertex -6.35 -5.79852 5.4
      vertex -8.49796 -4.23794 5.4
      vertex -6.35 -5.79852 -1.8
    endloop
  endfacet
  facet normal -0.406737 -0.913545 0
    outer loop
      vertex -6.35 -5.79852 5.4
      vertex -6.35 -5.79852 -1.8
      vertex -3.92452 -6.87842 -1.8
    endloop
  endfacet
  facet normal -0.406737 -0.913545 0
    outer loop
      vertex -3.92452 -6.87842 5.4
      vertex -6.35 -5.79852 5.4
      vertex -3.92452 -6.87842 -1.8
    endloop
  endfacet
  facet normal -0.207912 -0.978148 0
    outer loop
      vertex -3.92452 -6.87842 5.4
      vertex -3.92452 -6.87842 -1.8
      vertex -1.32751 -7.43043 -1.8
    endloop
  endfacet
  facet normal -0.207912 -0.978148 0
    outer loop
      vertex -1.32751 -7.43043 5.4
      vertex -3.92452 -6.87842 5.4
      vertex -1.32751 -7.43043 -1.8
    endloop
  endfacet
  facet normal 0 -1 0
    outer loop
      vertex -1.32751 -7.43043 5.4
      vertex -1.32751 -7.43043 -1.8
      vertex 1.32751 -7.43043 -1.8
    endloop
  endfacet
  facet normal 0 -1 0
    outer loop
      vertex 1.32751 -7.43043 5.4
      vertex -1.32751 -7.43043 5.4
      vertex 1.32751 -7.43043 -1.8
    endloop
  endfacet
  facet normal 0.207912 -0.978148 0
    outer loop
      vertex 1.32751 -7.43043 5.4
      vertex 1.32751 -7.43043 -1.8
      vertex 3.92452 -6.87842 -1.8
    endloop
  endfacet
  facet normal 0.207912 -0.978148 0
    outer loop
      vertex 3.92452 -6.87842 5.4
      vertex 1.32751 -7.43043 5.4
      vertex 3.92452 -6.87842 -1.8
    endloop
  endfacet
  facet normal 0.406737 -0.913545 0
    outer loop
      vertex 3.92452 -6.87842 5.4
      vertex 3.92452 -6.87842 -1.8
      vertex 6.35 -5.79852 -1.8
    endloop
  endfacet
  facet normal 0.406737 -0.913545 0
    outer loop
      vertex 6.35 -5.79852 5.4
      vertex 3.92452 -6.87842 5.4
      vertex 6.35 -5.79852 -1.8
    endloop
  endfacet
  facet normal 0.587785 -0.809017 0
    outer loop
      vertex 6.35 -5.79852 5.4
      vertex 6.35 -5.79852 -1.8
      vertex 8.49796 -4.23794 -1.8
    endloop
  endfacet
  facet normal 0.587785 -0.809017 0
    outer loop
      vertex 8.49796 -4.23794 5.4
      vertex 6.35 -5.79852 5.4
      vertex 8.49796 -4.23794 -1.8
    endloop
  endfacet
  facet normal 0.743145 -0.669131 0
    outer loop
      vertex 8.49796 -4.23794 5.4
      vertex 8.49796 -4.23794 -1.8
      vertex 10.2745 -2.26487 -1.8
    endloop
  endfacet
  facet normal 0.743145 -0.669131 0
    outer loop
      vertex 10.2745 -2.26487 5.4
      vertex 8.49796 -4.23794 5.4
      vertex 10.2745 -2.26487 -1.8
    endloop
  endfacet
  facet normal 0.866026 -0.5 0
    outer loop
      vertex 10.2745 -2.26487 5.4
      vertex 10.2745 -2.26487 -1.8
      vertex 11.602 0.034445 -1.8
    endloop
  endfacet
  facet normal 0.866026 -0.5 0
    outer loop
      vertex 11.602 0.034445 5.4
      vertex 10.2745 -2.26487 5.4
      vertex 11.602 0.034445 -1.8
    endloop
  endfacet
  facet normal 0.951056 -0.309017 0
    outer loop
      vertex 11.602 0.034445 5.4
      vertex 11.602 0.034445 -1.8
      vertex 12.4225 2.55952 -1.8
    endloop
  endfacet
  facet normal 0.951056 -0.309017 0
    outer loop
      vertex 12.4225 2.55952 5.4
      vertex 11.602 0.034445 5.4
      vertex 12.4225 2.55952 -1.8
    endloop
  endfacet
  facet normal 0.994522 -0.104528 0
    outer loop
      vertex 12.4225 2.55952 5.4
      vertex 12.4225 2.55952 -1.8
      vertex 12.7 5.2 -1.8
    endloop
  endfacet
  facet normal 0.994522 -0.104528 0
    outer loop
      vertex 12.7 5.2 5.4
      vertex 12.4225 2.55952 5.4
      vertex 12.7 5.2 -1.8
    endloop
  endfacet
  facet normal 1 0 0
    outer loop
      vertex 12.7 9.99441 1.8
      vertex 12.7 5.2 -1.8
      vertex 12.7 23.4 -1.8
    endloop
  endfacet
  facet normal 1 0 0
    outer loop
      vertex 12.7 9.99441 1.8
      vertex 12.7 9.99441 5.4
      vertex 12.7 5.2 5.4
    endloop
  endfacet
  facet normal 1 0 0
    outer loop
      vertex 12.7 5.2 5.4
      vertex 12.7 5.2 -1.8
      vertex 12.7 9.99441 1.8
    endloop
  endfacet
  facet normal 1 0 0
    outer loop
      vertex 12.7 23.4 1.8
      vertex 12.7 9.99441 1.8
      vertex 12.7 23.4 -1.8
    endloop
  endfacet
  facet normal 0.965926 0.258819 0
    outer loop
      vertex -1.725 0 1.3
      vertex -1.49389 -0.8625 1.3
      vertex -1.49389 -0.8625 -1.8
    endloop
  endfacet
  facet normal 0.965926 0.258819 0
    outer loop
      vertex -1.725 0 -1.8
      vertex -1.725 0 1.3
      vertex -1.49389 -0.8625 -1.8
    endloop
  endfacet
  facet normal 0.965926 -0.258819 0
    outer loop
      vertex -1.49389 0.8625 -1.8
      vertex -1.49389 0.8625 1.3
      vertex -1.725 0 1.3
    endloop
  endfacet
  facet normal 0.965926 -0.258819 0
    outer loop
      vertex -1.725 0 -1.8
      vertex -1.49389 0.8625 -1.8
      vertex -1.725 0 1.3
    endloop
  endfacet
  facet normal 0.707107 -0.707107 0
    outer loop
      vertex -0.8625 1.49389 -1.8
      vertex -0.8625 1.49389 1.3
      vertex -1.49389 0.8625 1.3
    endloop
  endfacet
  facet normal 0.707107 -0.707107 0
    outer loop
      vertex -1.49389 0.8625 -1.8
      vertex -0.8625 1.49389 -1.8
      vertex -1.49389 0.8625 1.3
    endloop
  endfacet
  facet normal 0.258819 -0.965926 0
    outer loop
      vertex 0 1.725 -1.8
      vertex 0 1.725 1.3
      vertex -0.8625 1.49389 1.3
    endloop
  endfacet
  facet normal 0.258819 -0.965926 0
    outer loop
      vertex -0.8625 1.49389 -1.8
      vertex 0 1.725 -1.8
      vertex -0.8625 1.49389 1.3
    endloop
  endfacet
  facet normal -0.258819 -0.965926 0
    outer loop
      vertex 0.8625 1.49389 -1.8
      vertex 0.8625 1.49389 1.3
      vertex 0 1.725 1.3
    endloop
  endfacet
  facet normal -0.258819 -0.965926 0
    outer loop
      vertex 0 1.725 -1.8
      vertex 0.8625 1.49389 -1.8
      vertex 0 1.725 1.3
    endloop
  endfacet
  facet normal -0.707107 -0.707107 0
    outer loop
      vertex 1.49389 0.8625 -1.8
      vertex 1.49389 0.8625 1.3
      vertex 0.8625 1.49389 1.3
    endloop
  endfacet
  facet normal -0.707107 -0.707107 0
    outer loop
      vertex 0.8625 1.49389 -1.8
      vertex 1.49389 0.8625 -1.8
      vertex 0.8625 1.49389 1.3
    endloop
  endfacet
  facet normal -0.965926 -0.258819 0
    outer loop
      vertex 1.725 0 1.3
      vertex 1.49389 0.8625 1.3
      vertex 1.725 0 -1.8
    endloop
  endfacet
  facet normal -0.965926 -0.258819 0
    outer loop
      vertex 1.725 0 -1.8
      vertex 1.49389 0.8625 1.3
      vertex 1.49389 0.8625 -1.8
    endloop
  endfacet
  facet normal -0.965926 0.258819 0
    outer loop
      vertex 1.725 0 1.3
      vertex 1.725 0 -1.8
      vertex 1.49389 -0.8625 1.3
    endloop
  endfacet
  facet normal -0.965926 0.258819 0
    outer loop
      vertex 1.49389 -0.8625 1.3
      vertex 1.725 0 -1.8
      vertex 1.49389 -0.8625 -1.8
    endloop
  endfacet
  facet normal -0.707107 0.707107 0
    outer loop
      vertex 1.49389 -0.8625 1.3
      vertex 1.49389 -0.8625 -1.8
      vertex 0.8625 -1.49389 1.3
    endloop
  endfacet
  facet normal -0.707107 0.707107 0
    outer loop
      vertex 0.8625 -1.49389 1.3
      vertex 1.49389 -0.8625 -1.8
      vertex 0.8625 -1.49389 -1.8
    endloop
  endfacet
  facet normal -0.258819 0.965926 0
    outer loop
      vertex 0.8625 -1.49389 1.3
      vertex 0.8625 -1.49389 -1.8
      vertex 0 -1.725 1.3
    endloop
  endfacet
  facet normal -0.258819 0.965926 0
    outer loop
      vertex 0 -1.725 1.3
      vertex 0.8625 -1.49389 -1.8
      vertex 0 -1.725 -1.8
    endloop
  endfacet
  facet normal 0.258819 0.965926 0
    outer loop
      vertex 0 -1.725 1.3
      vertex 0 -1.725 -1.8
      vertex -0.8625 -1.49389 1.3
    endloop
  endfacet
  facet normal 0.258819 0.965926 0
    outer loop
      vertex -0.8625 -1.49389 1.3
      vertex 0 -1.725 -1.8
      vertex -0.8625 -1.49389 -1.8
    endloop
  endfacet
  facet normal 0.707107 0.707107 0
    outer loop
      vertex -0.8625 -1.49389 1.3
      vertex -0.8625 -1.49389 -1.8
      vertex -1.49389 -0.8625 1.3
    endloop
  endfacet
  facet normal 0.707107 0.707107 0
    outer loop
      vertex -1.49389 -0.8625 1.3
      vertex -0.8625 -1.49389 -1.8
      vertex -1.49389 -0.8625 -1.8
    endloop
  endfacet
  facet normal 0.0941083 0.995562 0
    outer loop
      vertex -5.33719 9.16773 5.4
      vertex -5.33719 9.16773 1.8
      vertex -10.6533 9.67025 5.4
    endloop
  endfacet
  facet normal 0.0941083 0.995562 0
    outer loop
      vertex -10.6533 9.67025 5.4
      vertex -5.33719 9.16773 1.8
      vertex -10.6533 9.67025 1.8
    endloop
  endfacet
  facet normal -0.156435 0.987688 0
    outer loop
      vertex 12.7 9.99441 5.4
      vertex 12.7 9.99441 1.8
      vertex 10.6533 9.67025 5.4
    endloop
  endfacet
  facet normal -0.156435 0.987688 0
    outer loop
      vertex 10.6533 9.67025 5.4
      vertex 12.7 9.99441 1.8
      vertex 10.6533 9.67025 1.8
    endloop
  endfacet
  facet normal -0.0941083 0.995562 0
    outer loop
      vertex 10.6533 9.67025 5.4
      vertex 10.6533 9.67025 1.8
      vertex 5.33719 9.16773 5.4
    endloop
  endfacet
  facet normal -0.0941083 0.995562 0
    outer loop
      vertex 5.33719 9.16773 5.4
      vertex 10.6533 9.67025 1.8
      vertex 5.33719 9.16773 1.8
    endloop
  endfacet
  facet normal -0.0314107 0.999507 0
    outer loop
      vertex 5.33719 9.16773 5.4
      vertex 5.33719 9.16773 1.8
      vertex 0 9 5.4
    endloop
  endfacet
  facet normal -0.0314107 0.999507 0
    outer loop
      vertex 0 9 5.4
      vertex 5.33719 9.16773 1.8
      vertex 0 9 1.8
    endloop
  endfacet
  facet normal 0.0314107 0.999507 0
    outer loop
      vertex 0 9 5.4
      vertex 0 9 1.8
      vertex -5.33719 9.16773 5.4
    endloop
  endfacet
  facet normal 0.0314107 0.999507 0
    outer loop
      vertex -5.33719 9.16773 5.4
      vertex 0 9 1.8
      vertex -5.33719 9.16773 1.8
    endloop
  endfacet
  facet normal 0.707107 0.707107 0
    outer loop
      vertex -1.5 -2.59808 5.4
      vertex -1.5 -2.59808 1.3
      vertex -2.59808 -1.5 5.4
    endloop
  endfacet
  facet normal 0.707107 0.707107 0
    outer loop
      vertex -2.59808 -1.5 5.4
      vertex -1.5 -2.59808 1.3
      vertex -2.59808 -1.5 1.3
    endloop
  endfacet
  facet normal 0.965926 0.258819 0
    outer loop
      vertex -3 0 5.4
      vertex -2.59808 -1.5 5.4
      vertex -2.59808 -1.5 1.3
    endloop
  endfacet
  facet normal 0.965926 0.258819 0
    outer loop
      vertex -3 0 1.3
      vertex -3 0 5.4
      vertex -2.59808 -1.5 1.3
    endloop
  endfacet
  facet normal 0.258819 0.965926 0
    outer loop
      vertex 0 -3 5.4
      vertex 0 -3 1.3
      vertex -1.5 -2.59808 5.4
    endloop
  endfacet
  facet normal 0.258819 0.965926 0
    outer loop
      vertex -1.5 -2.59808 5.4
      vertex 0 -3 1.3
      vertex -1.5 -2.59808 1.3
    endloop
  endfacet
  facet normal -0.258819 0.965926 0
    outer loop
      vertex 1.5 -2.59808 5.4
      vertex 1.5 -2.59808 1.3
      vertex 0 -3 5.4
    endloop
  endfacet
  facet normal -0.258819 0.965926 0
    outer loop
      vertex 0 -3 5.4
      vertex 1.5 -2.59808 1.3
      vertex 0 -3 1.3
    endloop
  endfacet
  facet normal -0.707107 0.707107 0
    outer loop
      vertex 2.59808 -1.5 5.4
      vertex 2.59808 -1.5 1.3
      vertex 1.5 -2.59808 5.4
    endloop
  endfacet
  facet normal -0.707107 0.707107 0
    outer loop
      vertex 1.5 -2.59808 5.4
      vertex 2.59808 -1.5 1.3
      vertex 1.5 -2.59808 1.3
    endloop
  endfacet
  facet normal -0.965926 0.258819 0
    outer loop
      vertex 3 0 5.4
      vertex 3 0 1.3
      vertex 2.59808 -1.5 5.4
    endloop
  endfacet
  facet normal -0.965926 0.258819 0
    outer loop
      vertex 2.59808 -1.5 5.4
      vertex 3 0 1.3
      vertex 2.59808 -1.5 1.3
    endloop
  endfacet
  facet normal -0.965926 -0.258819 0
    outer loop
      vertex 3 0 5.4
      vertex 2.59808 1.5 5.4
      vertex 3 0 1.3
    endloop
  endfacet
  facet normal -0.965926 -0.258819 0
    outer loop
      vertex 3 0 1.3
      vertex 2.59808 1.5 5.4
      vertex 2.59808 1.5 1.3
    endloop
  endfacet
  facet normal -0.707107 -0.707107 0
    outer loop
      vertex 2.59808 1.5 1.3
      vertex 2.59808 1.5 5.4
      vertex 1.5 2.59808 5.4
    endloop
  endfacet
  facet normal -0.707107 -0.707107 0
    outer loop
      vertex 1.5 2.59808 1.3
      vertex 2.59808 1.5 1.3
      vertex 1.5 2.59808 5.4
    endloop
  endfacet
  facet normal -0.258819 -0.965926 0
    outer loop
      vertex 1.5 2.59808 1.3
      vertex 1.5 2.59808 5.4
      vertex 0 3 5.4
    endloop
  endfacet
  facet normal -0.258819 -0.965926 0
    outer loop
      vertex 0 3 1.3
      vertex 1.5 2.59808 1.3
      vertex 0 3 5.4
    endloop
  endfacet
  facet normal 0.258819 -0.965926 0
    outer loop
      vertex 0 3 1.3
      vertex 0 3 5.4
      vertex -1.5 2.59808 5.4
    endloop
  endfacet
  facet normal 0.258819 -0.965926 0
    outer loop
      vertex -1.5 2.59808 1.3
      vertex 0 3 1.3
      vertex -1.5 2.59808 5.4
    endloop
  endfacet
  facet normal 0.707107 -0.707107 0
    outer loop
      vertex -1.5 2.59808 1.3
      vertex -1.5 2.59808 5.4
      vertex -2.59808 1.5 5.4
    endloop
  endfacet
  facet normal 0.707107 -0.707107 0
    outer loop
      vertex -2.59808 1.5 1.3
      vertex -1.5 2.59808 1.3
      vertex -2.59808 1.5 5.4
    endloop
  endfacet
  facet normal 0.965926 -0.258819 0
    outer loop
      vertex -2.59808 1.5 1.3
      vertex -2.59808 1.5 5.4
      vertex -3 0 5.4
    endloop
  endfacet
  facet normal 0.965926 -0.258819 0
    outer loop
      vertex -3 0 1.3
      vertex -2.59808 1.5 1.3
      vertex -3 0 5.4
    endloop
  endfacet
  facet normal 0 0 1
    outer loop
      vertex -2.59808 -1.5 1.3
      vertex -1.5 -2.59808 1.3
      vertex 0 -3 1.3
    endloop
  endfacet
  facet normal 0 0 1
    outer loop
      vertex 0 -1.725 1.3
      vertex -2.59808 -1.5 1.3
      vertex 1.5 -2.59808 1.3
    endloop
  endfacet
  facet normal 0 0 1
    outer loop
      vertex 1.5 -2.59808 1.3
      vertex -2.59808 -1.5 1.3
      vertex 0 -3 1.3
    endloop
  endfacet
  facet normal 0 0 1
    outer loop
      vertex 0 -1.725 1.3
      vertex -0.8625 -1.49389 1.3
      vertex -2.59808 -1.5 1.3
    endloop
  endfacet
  facet normal 0 0 1
    outer loop
      vertex 0.8625 -1.49389 1.3
      vertex 0 -1.725 1.3
      vertex 2.59808 -1.5 1.3
    endloop
  endfacet
  facet normal 0 0 1
    outer loop
      vertex 1.725 0 1.3
      vertex 1.49389 -0.8625 1.3
      vertex 3 0 1.3
    endloop
  endfacet
  facet normal 0 0 1
    outer loop
      vertex 0 1.725 1.3
      vertex 0.8625 1.49389 1.3
      vertex 1.5 2.59808 1.3
    endloop
  endfacet
  facet normal 0 0 1
    outer loop
      vertex -2.59808 1.5 1.3
      vertex -2.59808 -1.5 1.3
      vertex -1.5 2.59808 1.3
    endloop
  endfacet
  facet normal 0 0 1
    outer loop
      vertex -3 0 1.3
      vertex -2.59808 -1.5 1.3
      vertex -2.59808 1.5 1.3
    endloop
  endfacet
  facet normal 0 0 1
    outer loop
      vertex -1.49389 0.8625 1.3
      vertex -0.8625 1.49389 1.3
      vertex 0 3 1.3
    endloop
  endfacet
  facet normal 0 0 1
    outer loop
      vertex -1.5 2.59808 1.3
      vertex -1.49389 0.8625 1.3
      vertex 0 3 1.3
    endloop
  endfacet
  facet normal 0 0 1
    outer loop
      vertex -1.5 2.59808 1.3
      vertex -2.59808 -1.5 1.3
      vertex -1.49389 0.8625 1.3
    endloop
  endfacet
  facet normal 0 0 1
    outer loop
      vertex 0 3 1.3
      vertex -0.8625 1.49389 1.3
      vertex 1.5 2.59808 1.3
    endloop
  endfacet
  facet normal 0 0 1
    outer loop
      vertex -0.8625 1.49389 1.3
      vertex 0 1.725 1.3
      vertex 1.5 2.59808 1.3
    endloop
  endfacet
  facet normal 0 0 1
    outer loop
      vertex 1.5 2.59808 1.3
      vertex 0.8625 1.49389 1.3
      vertex 2.59808 1.5 1.3
    endloop
  endfacet
  facet normal 0 0 1
    outer loop
      vertex -1.725 0 1.3
      vertex -1.49389 0.8625 1.3
      vertex -2.59808 -1.5 1.3
    endloop
  endfacet
  facet normal 0 0 1
    outer loop
      vertex 2.59808 1.5 1.3
      vertex 1.49389 0.8625 1.3
      vertex 3 0 1.3
    endloop
  endfacet
  facet normal 0 0 1
    outer loop
      vertex 1.49389 0.8625 1.3
      vertex 1.725 0 1.3
      vertex 3 0 1.3
    endloop
  endfacet
  facet normal 0 0 1
    outer loop
      vertex 3 0 1.3
      vertex 1.49389 -0.8625 1.3
      vertex 2.59808 -1.5 1.3
    endloop
  endfacet
  facet normal 0 0 1
    outer loop
      vertex 1.49389 -0.8625 1.3
      vertex 0.8625 -1.49389 1.3
      vertex 2.59808 -1.5 1.3
    endloop
  endfacet
  facet normal 0 0 1
    outer loop
      vertex 2.59808 -1.5 1.3
      vertex 0 -1.725 1.3
      vertex 1.5 -2.59808 1.3
    endloop
  endfacet
  facet normal 0 0 1
    outer loop
      vertex 0.8625 1.49389 1.3
      vertex 1.49389 0.8625 1.3
      vertex 2.59808 1.5 1.3
    endloop
  endfacet
  facet normal 0 0 1
    outer loop
      vertex -1.49389 -0.8625 1.3
      vertex -1.725 0 1.3
      vertex -2.59808 -1.5 1.3
    endloop
  endfacet
  facet normal 0 0 1
    outer loop
      vertex -0.8625 -1.49389 1.3
      vertex -1.49389 -0.8625 1.3
      vertex -2.59808 -1.5 1.3
    endloop
  endfacet
endsolid OpenSCAD_Model
