solid OpenSCAD_Model
  facet normal -1 0 0
    outer loop
      vertex -12.7 5.2 2.22045e-016
      vertex -12.7 5.2 3.6
      vertex -12.7 9.98245 2.22045e-016
    endloop
  endfacet
  facet normal -1 0 0
    outer loop
      vertex -12.7 9.98245 2.22045e-016
      vertex -12.7 5.2 3.6
      vertex -12.7 10.7744 3.6
    endloop
  endfacet
  facet normal -1 0 0
    outer loop
      vertex -12.7 9.98245 2.22045e-016
      vertex -12.7 10.7744 3.6
      vertex -12.7 10.3601 1.71657
    endloop
  endfacet
  facet normal -0.994522 -0.104528 0
    outer loop
      vertex -12.7 5.2 2.22045e-016
      vertex -12.4225 2.55952 2.22045e-016
      vertex -12.7 5.2 3.6
    endloop
  endfacet
  facet normal -0.994522 -0.104528 0
    outer loop
      vertex -12.7 5.2 3.6
      vertex -12.4225 2.55952 2.22045e-016
      vertex -12.4225 2.55952 3.6
    endloop
  endfacet
  facet normal 0 0 -1
    outer loop
      vertex -12.7 5.2 2.22045e-016
      vertex -12.7 9.98245 2.22045e-016
      vertex -12.4225 2.55952 2.22045e-016
    endloop
  endfacet
  facet normal 0 0 -1
    outer loop
      vertex -12.4225 2.55952 2.22045e-016
      vertex -12.7 9.98245 2.22045e-016
      vertex -10.7787 9.67814 2.22045e-016
    endloop
  endfacet
  facet normal 0 0 -1
    outer loop
      vertex -12.4225 2.55952 2.22045e-016
      vertex -10.7787 9.67814 2.22045e-016
      vertex -5.39999 9.1697 2.22045e-016
    endloop
  endfacet
  facet normal 0 0 -1
    outer loop
      vertex -5.39999 9.1697 2.22045e-016
      vertex -5.39998 9.1697 2.22045e-016
      vertex -12.4225 2.55952 2.22045e-016
    endloop
  endfacet
  facet normal 0 0 -1
    outer loop
      vertex -5.39998 9.1697 2.22045e-016
      vertex -2.57629e-016 9 2.22045e-016
      vertex -12.4225 2.55952 2.22045e-016
    endloop
  endfacet
  facet normal 0 0 -1
    outer loop
      vertex -12.4225 2.55952 2.22045e-016
      vertex -2.57629e-016 9 2.22045e-016
      vertex 0 9 2.22045e-016
    endloop
  endfacet
  facet normal 0 0 -1
    outer loop
      vertex 0 9 2.22045e-016
      vertex 5.39998 9.1697 2.22045e-016
      vertex -12.4225 2.55952 2.22045e-016
    endloop
  endfacet
  facet normal 0 0 -1
    outer loop
      vertex -1.49389 5.8625 2.22045e-016
      vertex -12.4225 2.55952 2.22045e-016
      vertex -0.8625 6.49389 2.22045e-016
    endloop
  endfacet
  facet normal 0 0 -1
    outer loop
      vertex 1.725 5 2.22045e-016
      vertex 12.7 5.2 2.22045e-016
      vertex 12.4225 2.55952 2.22045e-016
    endloop
  endfacet
  facet normal 0 0 -1
    outer loop
      vertex 1.49389 5.8625 2.22045e-016
      vertex 12.7 9.98245 2.22045e-016
      vertex 12.7 5.2 2.22045e-016
    endloop
  endfacet
  facet normal 0 0 -1
    outer loop
      vertex 1.725 0 2.22045e-016
      vertex 11.602 0.034445 2.22045e-016
      vertex 10.2745 -2.26487 2.22045e-016
    endloop
  endfacet
  facet normal 0 0 -1
    outer loop
      vertex 1.49389 -0.8625 2.22045e-016
      vertex 10.2745 -2.26487 2.22045e-016
      vertex 8.49796 -4.23794 2.22045e-016
    endloop
  endfacet
  facet normal 0 0 -1
    outer loop
      vertex -0.8625 -1.49389 2.22045e-016
      vertex 8.49796 -4.23794 2.22045e-016
      vertex 6.35 -5.79852 2.22045e-016
    endloop
  endfacet
  facet normal 0 0 -1
    outer loop
      vertex -12.4225 2.55952 2.22045e-016
      vertex 6.35 -5.79852 2.22045e-016
      vertex 3.92452 -6.87842 2.22045e-016
    endloop
  endfacet
  facet normal 0 0 -1
    outer loop
      vertex -12.4225 2.55952 2.22045e-016
      vertex 3.92452 -6.87842 2.22045e-016
      vertex 1.32751 -7.43043 2.22045e-016
    endloop
  endfacet
  facet normal 0 0 -1
    outer loop
      vertex -12.4225 2.55952 2.22045e-016
      vertex 1.32751 -7.43043 2.22045e-016
      vertex -1.32751 -7.43043 2.22045e-016
    endloop
  endfacet
  facet normal 0 0 -1
    outer loop
      vertex -12.4225 2.55952 2.22045e-016
      vertex -1.32751 -7.43043 2.22045e-016
      vertex -3.92452 -6.87842 2.22045e-016
    endloop
  endfacet
  facet normal 0 0 -1
    outer loop
      vertex -12.4225 2.55952 2.22045e-016
      vertex -3.92452 -6.87842 2.22045e-016
      vertex -6.35 -5.79852 2.22045e-016
    endloop
  endfacet
  facet normal 0 0 -1
    outer loop
      vertex -12.4225 2.55952 2.22045e-016
      vertex -6.35 -5.79852 2.22045e-016
      vertex -8.49796 -4.23794 2.22045e-016
    endloop
  endfacet
  facet normal 0 0 -1
    outer loop
      vertex -12.4225 2.55952 2.22045e-016
      vertex -8.49796 -4.23794 2.22045e-016
      vertex -10.2745 -2.26487 2.22045e-016
    endloop
  endfacet
  facet normal 0 0 -1
    outer loop
      vertex -12.4225 2.55952 2.22045e-016
      vertex -10.2745 -2.26487 2.22045e-016
      vertex -11.602 0.034445 2.22045e-016
    endloop
  endfacet
  facet normal 0 0 -1
    outer loop
      vertex -1.725 0 2.22045e-016
      vertex -12.4225 2.55952 2.22045e-016
      vertex -1.725 5 2.22045e-016
    endloop
  endfacet
  facet normal 0 0 -1
    outer loop
      vertex -0.8625 -1.49389 2.22045e-016
      vertex -12.4225 2.55952 2.22045e-016
      vertex -1.49389 -0.8625 2.22045e-016
    endloop
  endfacet
  facet normal 0 0 -1
    outer loop
      vertex -12.4225 2.55952 2.22045e-016
      vertex -1.725 0 2.22045e-016
      vertex -1.49389 -0.8625 2.22045e-016
    endloop
  endfacet
  facet normal 0 0 -1
    outer loop
      vertex 0 -1.725 2.22045e-016
      vertex 8.49796 -4.23794 2.22045e-016
      vertex -0.8625 -1.49389 2.22045e-016
    endloop
  endfacet
  facet normal 0 0 -1
    outer loop
      vertex -12.4225 2.55952 2.22045e-016
      vertex -0.8625 -1.49389 2.22045e-016
      vertex 6.35 -5.79852 2.22045e-016
    endloop
  endfacet
  facet normal 0 0 -1
    outer loop
      vertex 0.8625 -1.49389 2.22045e-016
      vertex 8.49796 -4.23794 2.22045e-016
      vertex 0 -1.725 2.22045e-016
    endloop
  endfacet
  facet normal 0 0 -1
    outer loop
      vertex 1.49389 -0.8625 2.22045e-016
      vertex 8.49796 -4.23794 2.22045e-016
      vertex 0.8625 -1.49389 2.22045e-016
    endloop
  endfacet
  facet normal 0 0 -1
    outer loop
      vertex 1.725 5 2.22045e-016
      vertex 11.602 0.034445 2.22045e-016
      vertex 1.725 0 2.22045e-016
    endloop
  endfacet
  facet normal 0 0 -1
    outer loop
      vertex 1.725 0 2.22045e-016
      vertex 10.2745 -2.26487 2.22045e-016
      vertex 1.49389 -0.8625 2.22045e-016
    endloop
  endfacet
  facet normal 0 0 -1
    outer loop
      vertex 0 6.725 2.22045e-016
      vertex 10.7787 9.67814 2.22045e-016
      vertex 0.8625 6.49389 2.22045e-016
    endloop
  endfacet
  facet normal 0 0 -1
    outer loop
      vertex 0.8625 6.49389 2.22045e-016
      vertex 12.7 9.98245 2.22045e-016
      vertex 1.49389 5.8625 2.22045e-016
    endloop
  endfacet
  facet normal 0 0 -1
    outer loop
      vertex 10.7787 9.67814 2.22045e-016
      vertex 12.7 9.98245 2.22045e-016
      vertex 0.8625 6.49389 2.22045e-016
    endloop
  endfacet
  facet normal 0 0 -1
    outer loop
      vertex 1.49389 5.8625 2.22045e-016
      vertex 12.7 5.2 2.22045e-016
      vertex 1.725 5 2.22045e-016
    endloop
  endfacet
  facet normal 0 0 -1
    outer loop
      vertex 5.39998 9.1697 2.22045e-016
      vertex 10.7787 9.67814 2.22045e-016
      vertex 0 6.725 2.22045e-016
    endloop
  endfacet
  facet normal 0 0 -1
    outer loop
      vertex 5.39998 9.1697 2.22045e-016
      vertex 0 6.725 2.22045e-016
      vertex -0.8625 6.49389 2.22045e-016
    endloop
  endfacet
  facet normal 0 0 -1
    outer loop
      vertex 5.39998 9.1697 2.22045e-016
      vertex -0.8625 6.49389 2.22045e-016
      vertex -12.4225 2.55952 2.22045e-016
    endloop
  endfacet
  facet normal 0 0 -1
    outer loop
      vertex -1.725 5 2.22045e-016
      vertex -12.4225 2.55952 2.22045e-016
      vertex -1.49389 5.8625 2.22045e-016
    endloop
  endfacet
  facet normal 0 0 -1
    outer loop
      vertex 1.725 5 2.22045e-016
      vertex 12.4225 2.55952 2.22045e-016
      vertex 11.602 0.034445 2.22045e-016
    endloop
  endfacet
  facet normal 0.152867 0.965167 -0.21233
    outer loop
      vertex -12.7 10.3601 1.71657
      vertex -10.7787 9.67814 2.22045e-016
      vertex -12.7 9.98245 2.22045e-016
    endloop
  endfacet
  facet normal 0.152868 0.965167 -0.212329
    outer loop
      vertex -10.6806 10.4546 3.6
      vertex -10.7787 9.67814 2.22045e-016
      vertex -12.7 10.7744 3.6
    endloop
  endfacet
  facet normal 0.152868 0.965167 -0.212329
    outer loop
      vertex -12.7 10.7744 3.6
      vertex -10.7787 9.67814 2.22045e-016
      vertex -12.7 10.3601 1.71657
    endloop
  endfacet
  facet normal 0 0 1
    outer loop
      vertex -12.7 10.7744 3.6
      vertex -12.7 5.2 3.6
      vertex -12.4225 2.55952 3.6
    endloop
  endfacet
  facet normal 0 0 1
    outer loop
      vertex -10.2745 -2.26487 3.6
      vertex -12.7 10.7744 3.6
      vertex -11.602 0.034445 3.6
    endloop
  endfacet
  facet normal 0 0 1
    outer loop
      vertex -11.602 0.034445 3.6
      vertex -12.7 10.7744 3.6
      vertex -12.4225 2.55952 3.6
    endloop
  endfacet
  facet normal 0 0 1
    outer loop
      vertex -8.49796 -4.23794 3.6
      vertex -12.7 10.7744 3.6
      vertex -10.2745 -2.26487 3.6
    endloop
  endfacet
  facet normal 0 0 1
    outer loop
      vertex -6.35 -5.79852 3.6
      vertex -12.7 10.7744 3.6
      vertex -8.49796 -4.23794 3.6
    endloop
  endfacet
  facet normal 0 0 1
    outer loop
      vertex -3.92452 -6.87842 3.6
      vertex -12.7 10.7744 3.6
      vertex -6.35 -5.79852 3.6
    endloop
  endfacet
  facet normal 0 0 1
    outer loop
      vertex -1.32751 -7.43043 3.6
      vertex -12.7 10.7744 3.6
      vertex -3.92452 -6.87842 3.6
    endloop
  endfacet
  facet normal 0 0 1
    outer loop
      vertex 1.32751 -7.43043 3.6
      vertex -12.7 10.7744 3.6
      vertex -1.32751 -7.43043 3.6
    endloop
  endfacet
  facet normal 0 0 1
    outer loop
      vertex -2.51147 -1.45 3.6
      vertex -12.7 10.7744 3.6
      vertex 1.32751 -7.43043 3.6
    endloop
  endfacet
  facet normal 0 0 1
    outer loop
      vertex 2.9 5 3.6
      vertex 8.49796 -4.23794 3.6
      vertex 10.2745 -2.26487 3.6
    endloop
  endfacet
  facet normal 0 0 1
    outer loop
      vertex -2.51147 6.45 3.6
      vertex -1.45 7.51147 3.6
      vertex -12.7 10.7744 3.6
    endloop
  endfacet
  facet normal 0 0 1
    outer loop
      vertex -10.6806 10.4546 3.6
      vertex -12.7 10.7744 3.6
      vertex 12.7 5.2 3.6
    endloop
  endfacet
  facet normal 0 0 1
    outer loop
      vertex 12.7 10.7744 3.6
      vertex 11.8406 10.6383 3.6
      vertex 12.7 5.2 3.6
    endloop
  endfacet
  facet normal 0 0 1
    outer loop
      vertex 11.8406 10.6383 3.6
      vertex 10.6806 10.4546 3.6
      vertex 12.7 5.2 3.6
    endloop
  endfacet
  facet normal 0 0 1
    outer loop
      vertex 10.6806 10.4546 3.6
      vertex 6.52012 10.0613 3.6
      vertex 12.7 5.2 3.6
    endloop
  endfacet
  facet normal 0 0 1
    outer loop
      vertex 6.52012 10.0613 3.6
      vertex 5.35084 9.95077 3.6
      vertex 12.7 5.2 3.6
    endloop
  endfacet
  facet normal 0 0 1
    outer loop
      vertex 5.35084 9.95077 3.6
      vertex 1.17391 9.8195 3.6
      vertex 12.7 5.2 3.6
    endloop
  endfacet
  facet normal 0 0 1
    outer loop
      vertex 1.17391 9.8195 3.6
      vertex 0 9.78261 3.6
      vertex 12.7 5.2 3.6
    endloop
  endfacet
  facet normal 0 0 1
    outer loop
      vertex 0 9.78261 3.6
      vertex -4.17693 9.91387 3.6
      vertex 12.7 5.2 3.6
    endloop
  endfacet
  facet normal 0 0 1
    outer loop
      vertex -4.17693 9.91387 3.6
      vertex -5.35084 9.95077 3.6
      vertex 12.7 5.2 3.6
    endloop
  endfacet
  facet normal 0 0 1
    outer loop
      vertex -5.35084 9.95077 3.6
      vertex -9.51129 10.344 3.6
      vertex 12.7 5.2 3.6
    endloop
  endfacet
  facet normal 0 0 1
    outer loop
      vertex -9.51129 10.344 3.6
      vertex -10.6806 10.4546 3.6
      vertex 12.7 5.2 3.6
    endloop
  endfacet
  facet normal 0 0 1
    outer loop
      vertex 1.45 -2.51147 3.6
      vertex 0 -2.9 3.6
      vertex 3.92452 -6.87842 3.6
    endloop
  endfacet
  facet normal 0 0 1
    outer loop
      vertex 2.51147 6.45 3.6
      vertex 2.9 5 3.6
      vertex 12.4225 2.55952 3.6
    endloop
  endfacet
  facet normal 0 0 1
    outer loop
      vertex 1.45 7.51147 3.6
      vertex 2.51147 6.45 3.6
      vertex 12.7 5.2 3.6
    endloop
  endfacet
  facet normal 0 0 1
    outer loop
      vertex 2.9 5 3.6
      vertex 10.2745 -2.26487 3.6
      vertex 11.602 0.034445 3.6
    endloop
  endfacet
  facet normal 0 0 1
    outer loop
      vertex 0 7.9 3.6
      vertex -12.7 10.7744 3.6
      vertex -1.45 7.51147 3.6
    endloop
  endfacet
  facet normal 0 0 1
    outer loop
      vertex 12.7 5.2 3.6
      vertex -12.7 10.7744 3.6
      vertex 0 7.9 3.6
    endloop
  endfacet
  facet normal 0 0 1
    outer loop
      vertex 12.7 5.2 3.6
      vertex 0 7.9 3.6
      vertex 1.45 7.51147 3.6
    endloop
  endfacet
  facet normal 0 0 1
    outer loop
      vertex 12.7 5.2 3.6
      vertex 2.51147 6.45 3.6
      vertex 12.4225 2.55952 3.6
    endloop
  endfacet
  facet normal 0 0 1
    outer loop
      vertex 12.4225 2.55952 3.6
      vertex 2.9 5 3.6
      vertex 11.602 0.034445 3.6
    endloop
  endfacet
  facet normal 0 0 1
    outer loop
      vertex 8.49796 -4.23794 3.6
      vertex 2.51147 -1.45 3.6
      vertex 6.35 -5.79852 3.6
    endloop
  endfacet
  facet normal 0 0 1
    outer loop
      vertex -2.9 5 3.6
      vertex -2.51147 6.45 3.6
      vertex -12.7 10.7744 3.6
    endloop
  endfacet
  facet normal 0 0 1
    outer loop
      vertex 6.35 -5.79852 3.6
      vertex 1.45 -2.51147 3.6
      vertex 3.92452 -6.87842 3.6
    endloop
  endfacet
  facet normal 0 0 1
    outer loop
      vertex 2.9 5 3.6
      vertex 2.9 0 3.6
      vertex 8.49796 -4.23794 3.6
    endloop
  endfacet
  facet normal 0 0 1
    outer loop
      vertex -1.45 -2.51147 3.6
      vertex -2.51147 -1.45 3.6
      vertex 1.32751 -7.43043 3.6
    endloop
  endfacet
  facet normal 0 0 1
    outer loop
      vertex 3.92452 -6.87842 3.6
      vertex -1.45 -2.51147 3.6
      vertex 1.32751 -7.43043 3.6
    endloop
  endfacet
  facet normal 0 0 1
    outer loop
      vertex -2.9 0 3.6
      vertex -12.7 10.7744 3.6
      vertex -2.51147 -1.45 3.6
    endloop
  endfacet
  facet normal 0 0 1
    outer loop
      vertex 2.9 0 3.6
      vertex 2.51147 -1.45 3.6
      vertex 8.49796 -4.23794 3.6
    endloop
  endfacet
  facet normal 0 0 1
    outer loop
      vertex 2.51147 -1.45 3.6
      vertex 1.45 -2.51147 3.6
      vertex 6.35 -5.79852 3.6
    endloop
  endfacet
  facet normal 0 0 1
    outer loop
      vertex 0 -2.9 3.6
      vertex -1.45 -2.51147 3.6
      vertex 3.92452 -6.87842 3.6
    endloop
  endfacet
  facet normal 0 0 1
    outer loop
      vertex -2.9 0 3.6
      vertex -2.9 5 3.6
      vertex -12.7 10.7744 3.6
    endloop
  endfacet
  facet normal -0.951056 -0.309017 0
    outer loop
      vertex -12.4225 2.55952 2.22045e-016
      vertex -11.602 0.034445 2.22045e-016
      vertex -12.4225 2.55952 3.6
    endloop
  endfacet
  facet normal -0.951056 -0.309017 0
    outer loop
      vertex -12.4225 2.55952 3.6
      vertex -11.602 0.034445 2.22045e-016
      vertex -11.602 0.034445 3.6
    endloop
  endfacet
  facet normal -0.866026 -0.5 0
    outer loop
      vertex -11.602 0.034445 2.22045e-016
      vertex -10.2745 -2.26487 2.22045e-016
      vertex -11.602 0.034445 3.6
    endloop
  endfacet
  facet normal -0.866026 -0.5 0
    outer loop
      vertex -11.602 0.034445 3.6
      vertex -10.2745 -2.26487 2.22045e-016
      vertex -10.2745 -2.26487 3.6
    endloop
  endfacet
  facet normal -0.743145 -0.669131 0
    outer loop
      vertex -10.2745 -2.26487 2.22045e-016
      vertex -8.49796 -4.23794 2.22045e-016
      vertex -10.2745 -2.26487 3.6
    endloop
  endfacet
  facet normal -0.743145 -0.669131 0
    outer loop
      vertex -10.2745 -2.26487 3.6
      vertex -8.49796 -4.23794 2.22045e-016
      vertex -8.49796 -4.23794 3.6
    endloop
  endfacet
  facet normal -0.587785 -0.809017 0
    outer loop
      vertex -8.49796 -4.23794 3.6
      vertex -8.49796 -4.23794 2.22045e-016
      vertex -6.35 -5.79852 2.22045e-016
    endloop
  endfacet
  facet normal -0.587785 -0.809017 0
    outer loop
      vertex -6.35 -5.79852 3.6
      vertex -8.49796 -4.23794 3.6
      vertex -6.35 -5.79852 2.22045e-016
    endloop
  endfacet
  facet normal -0.406737 -0.913545 0
    outer loop
      vertex -6.35 -5.79852 3.6
      vertex -6.35 -5.79852 2.22045e-016
      vertex -3.92452 -6.87842 2.22045e-016
    endloop
  endfacet
  facet normal -0.406737 -0.913545 0
    outer loop
      vertex -3.92452 -6.87842 3.6
      vertex -6.35 -5.79852 3.6
      vertex -3.92452 -6.87842 2.22045e-016
    endloop
  endfacet
  facet normal -0.207912 -0.978148 0
    outer loop
      vertex -3.92452 -6.87842 3.6
      vertex -3.92452 -6.87842 2.22045e-016
      vertex -1.32751 -7.43043 2.22045e-016
    endloop
  endfacet
  facet normal -0.207912 -0.978148 0
    outer loop
      vertex -1.32751 -7.43043 3.6
      vertex -3.92452 -6.87842 3.6
      vertex -1.32751 -7.43043 2.22045e-016
    endloop
  endfacet
  facet normal 0 -1 0
    outer loop
      vertex -1.32751 -7.43043 3.6
      vertex -1.32751 -7.43043 2.22045e-016
      vertex 1.32751 -7.43043 2.22045e-016
    endloop
  endfacet
  facet normal 0 -1 0
    outer loop
      vertex 1.32751 -7.43043 3.6
      vertex -1.32751 -7.43043 3.6
      vertex 1.32751 -7.43043 2.22045e-016
    endloop
  endfacet
  facet normal 0.207912 -0.978148 0
    outer loop
      vertex 1.32751 -7.43043 3.6
      vertex 1.32751 -7.43043 2.22045e-016
      vertex 3.92452 -6.87842 2.22045e-016
    endloop
  endfacet
  facet normal 0.207912 -0.978148 0
    outer loop
      vertex 3.92452 -6.87842 3.6
      vertex 1.32751 -7.43043 3.6
      vertex 3.92452 -6.87842 2.22045e-016
    endloop
  endfacet
  facet normal 0.406737 -0.913545 0
    outer loop
      vertex 3.92452 -6.87842 3.6
      vertex 3.92452 -6.87842 2.22045e-016
      vertex 6.35 -5.79852 2.22045e-016
    endloop
  endfacet
  facet normal 0.406737 -0.913545 0
    outer loop
      vertex 6.35 -5.79852 3.6
      vertex 3.92452 -6.87842 3.6
      vertex 6.35 -5.79852 2.22045e-016
    endloop
  endfacet
  facet normal 0.587785 -0.809017 0
    outer loop
      vertex 6.35 -5.79852 3.6
      vertex 6.35 -5.79852 2.22045e-016
      vertex 8.49796 -4.23794 2.22045e-016
    endloop
  endfacet
  facet normal 0.587785 -0.809017 0
    outer loop
      vertex 8.49796 -4.23794 3.6
      vertex 6.35 -5.79852 3.6
      vertex 8.49796 -4.23794 2.22045e-016
    endloop
  endfacet
  facet normal 0.743145 -0.669131 0
    outer loop
      vertex 8.49796 -4.23794 3.6
      vertex 8.49796 -4.23794 2.22045e-016
      vertex 10.2745 -2.26487 2.22045e-016
    endloop
  endfacet
  facet normal 0.743145 -0.669131 0
    outer loop
      vertex 10.2745 -2.26487 3.6
      vertex 8.49796 -4.23794 3.6
      vertex 10.2745 -2.26487 2.22045e-016
    endloop
  endfacet
  facet normal 0.866026 -0.5 0
    outer loop
      vertex 10.2745 -2.26487 3.6
      vertex 10.2745 -2.26487 2.22045e-016
      vertex 11.602 0.034445 2.22045e-016
    endloop
  endfacet
  facet normal 0.866026 -0.5 0
    outer loop
      vertex 11.602 0.034445 3.6
      vertex 10.2745 -2.26487 3.6
      vertex 11.602 0.034445 2.22045e-016
    endloop
  endfacet
  facet normal 0.951056 -0.309017 0
    outer loop
      vertex 11.602 0.034445 3.6
      vertex 11.602 0.034445 2.22045e-016
      vertex 12.4225 2.55952 2.22045e-016
    endloop
  endfacet
  facet normal 0.951056 -0.309017 0
    outer loop
      vertex 12.4225 2.55952 3.6
      vertex 11.602 0.034445 3.6
      vertex 12.4225 2.55952 2.22045e-016
    endloop
  endfacet
  facet normal 0.994522 -0.104528 0
    outer loop
      vertex 12.4225 2.55952 3.6
      vertex 12.4225 2.55952 2.22045e-016
      vertex 12.7 5.2 2.22045e-016
    endloop
  endfacet
  facet normal 0.994522 -0.104528 0
    outer loop
      vertex 12.7 5.2 3.6
      vertex 12.4225 2.55952 3.6
      vertex 12.7 5.2 2.22045e-016
    endloop
  endfacet
  facet normal 1 0 0
    outer loop
      vertex 12.7 5.2 3.6
      vertex 12.7 5.2 2.22045e-016
      vertex 12.7 9.98245 2.22045e-016
    endloop
  endfacet
  facet normal 1 0 0
    outer loop
      vertex 12.7 10.7744 3.6
      vertex 12.7 5.2 3.6
      vertex 12.7 10.6152 2.87616
    endloop
  endfacet
  facet normal 1 0 0
    outer loop
      vertex 12.7 10.6152 2.87616
      vertex 12.7 5.2 3.6
      vertex 12.7 9.98245 2.22045e-016
    endloop
  endfacet
  facet normal -0.152867 0.965167 -0.212329
    outer loop
      vertex 12.7 10.6152 2.87616
      vertex 12.7 9.98245 2.22045e-016
      vertex 11.8406 10.6383 3.6
    endloop
  endfacet
  facet normal -0.152867 0.965167 -0.212329
    outer loop
      vertex 11.8406 10.6383 3.6
      vertex 12.7 9.98245 2.22045e-016
      vertex 10.7787 9.67814 2.22045e-016
    endloop
  endfacet
  facet normal -0.152867 0.965167 -0.212329
    outer loop
      vertex 11.8406 10.6383 3.6
      vertex 10.7787 9.67814 2.22045e-016
      vertex 10.6806 10.4546 3.6
    endloop
  endfacet
  facet normal -0.0919624 0.972861 -0.212329
    outer loop
      vertex 10.6806 10.4546 3.6
      vertex 10.7787 9.67814 2.22045e-016
      vertex 6.52012 10.0613 3.6
    endloop
  endfacet
  facet normal -0.0919626 0.972861 -0.21233
    outer loop
      vertex 10.7787 9.67814 2.22045e-016
      vertex 5.39998 9.1697 2.22045e-016
      vertex 6.52012 10.0613 3.6
    endloop
  endfacet
  facet normal -0.0919626 0.972861 -0.21233
    outer loop
      vertex 6.52012 10.0613 3.6
      vertex 5.39998 9.1697 2.22045e-016
      vertex 5.35084 9.95077 3.6
    endloop
  endfacet
  facet normal -0.0306945 0.976716 -0.21233
    outer loop
      vertex 5.35084 9.95077 3.6
      vertex 5.39998 9.1697 2.22045e-016
      vertex 1.17391 9.8195 3.6
    endloop
  endfacet
  facet normal -0.0306945 0.976716 -0.21233
    outer loop
      vertex 1.17391 9.8195 3.6
      vertex 5.39998 9.1697 2.22045e-016
      vertex 0 9.78261 3.6
    endloop
  endfacet
  facet normal -0.0306945 0.976716 -0.21233
    outer loop
      vertex 0 9.78261 3.6
      vertex 5.39998 9.1697 2.22045e-016
      vertex 0 9 2.22045e-016
    endloop
  endfacet
  facet normal 0.0306945 0.976716 -0.21233
    outer loop
      vertex 0 9 2.22045e-016
      vertex -2.57629e-016 9 2.22045e-016
      vertex 0 9.78261 3.6
    endloop
  endfacet
  facet normal 0.0306945 0.976716 -0.21233
    outer loop
      vertex 0 9.78261 3.6
      vertex -2.57629e-016 9 2.22045e-016
      vertex -4.17693 9.91387 3.6
    endloop
  endfacet
  facet normal 0.0306945 0.976716 -0.21233
    outer loop
      vertex -4.17693 9.91387 3.6
      vertex -2.57629e-016 9 2.22045e-016
      vertex -5.35084 9.95077 3.6
    endloop
  endfacet
  facet normal 0.0306945 0.976716 -0.21233
    outer loop
      vertex -5.35084 9.95077 3.6
      vertex -2.57629e-016 9 2.22045e-016
      vertex -5.39998 9.1697 2.22045e-016
    endloop
  endfacet
  facet normal 0.0919624 0.972861 -0.21233
    outer loop
      vertex -5.39998 9.1697 2.22045e-016
      vertex -5.39999 9.1697 2.22045e-016
      vertex -5.35084 9.95077 3.6
    endloop
  endfacet
  facet normal 0.0919624 0.972861 -0.21233
    outer loop
      vertex -5.35084 9.95077 3.6
      vertex -5.39999 9.1697 2.22045e-016
      vertex -9.51129 10.344 3.6
    endloop
  endfacet
  facet normal 0.0919626 0.972861 -0.212329
    outer loop
      vertex -9.51129 10.344 3.6
      vertex -5.39999 9.1697 2.22045e-016
      vertex -10.6806 10.4546 3.6
    endloop
  endfacet
  facet normal 0.0919626 0.972861 -0.212329
    outer loop
      vertex -10.6806 10.4546 3.6
      vertex -5.39999 9.1697 2.22045e-016
      vertex -10.7787 9.67814 2.22045e-016
    endloop
  endfacet
  facet normal 1 0 0
    outer loop
      vertex -1.725 5 2.22045e-016
      vertex -1.725 5 0.8
      vertex -1.725 0 0.8
    endloop
  endfacet
  facet normal 1 0 0
    outer loop
      vertex -1.725 0 2.22045e-016
      vertex -1.725 5 2.22045e-016
      vertex -1.725 0 0.8
    endloop
  endfacet
  facet normal 0.965926 -0.258819 0
    outer loop
      vertex -1.49389 5.8625 2.22045e-016
      vertex -1.49389 5.8625 0.8
      vertex -1.725 5 0.8
    endloop
  endfacet
  facet normal 0.965926 -0.258819 0
    outer loop
      vertex -1.725 5 2.22045e-016
      vertex -1.49389 5.8625 2.22045e-016
      vertex -1.725 5 0.8
    endloop
  endfacet
  facet normal 0.707107 -0.707107 0
    outer loop
      vertex -0.8625 6.49389 2.22045e-016
      vertex -0.8625 6.49389 0.8
      vertex -1.49389 5.8625 0.8
    endloop
  endfacet
  facet normal 0.707107 -0.707107 0
    outer loop
      vertex -1.49389 5.8625 2.22045e-016
      vertex -0.8625 6.49389 2.22045e-016
      vertex -1.49389 5.8625 0.8
    endloop
  endfacet
  facet normal 0.258819 -0.965926 0
    outer loop
      vertex 0 6.725 2.22045e-016
      vertex 0 6.725 0.8
      vertex -0.8625 6.49389 0.8
    endloop
  endfacet
  facet normal 0.258819 -0.965926 0
    outer loop
      vertex -0.8625 6.49389 2.22045e-016
      vertex 0 6.725 2.22045e-016
      vertex -0.8625 6.49389 0.8
    endloop
  endfacet
  facet normal -0.258819 -0.965926 0
    outer loop
      vertex 0.8625 6.49389 2.22045e-016
      vertex 0.8625 6.49389 0.8
      vertex 0 6.725 0.8
    endloop
  endfacet
  facet normal -0.258819 -0.965926 0
    outer loop
      vertex 0 6.725 2.22045e-016
      vertex 0.8625 6.49389 2.22045e-016
      vertex 0 6.725 0.8
    endloop
  endfacet
  facet normal -0.707107 -0.707107 0
    outer loop
      vertex 1.49389 5.8625 0.8
      vertex 0.8625 6.49389 0.8
      vertex 1.49389 5.8625 2.22045e-016
    endloop
  endfacet
  facet normal -0.707107 -0.707107 0
    outer loop
      vertex 1.49389 5.8625 2.22045e-016
      vertex 0.8625 6.49389 0.8
      vertex 0.8625 6.49389 2.22045e-016
    endloop
  endfacet
  facet normal -0.965926 -0.258819 0
    outer loop
      vertex 1.725 5 0.8
      vertex 1.49389 5.8625 0.8
      vertex 1.725 5 2.22045e-016
    endloop
  endfacet
  facet normal -0.965926 -0.258819 0
    outer loop
      vertex 1.725 5 2.22045e-016
      vertex 1.49389 5.8625 0.8
      vertex 1.49389 5.8625 2.22045e-016
    endloop
  endfacet
  facet normal -1 0 0
    outer loop
      vertex 1.725 5 0.8
      vertex 1.725 5 2.22045e-016
      vertex 1.725 0 0.8
    endloop
  endfacet
  facet normal -1 0 0
    outer loop
      vertex 1.725 0 0.8
      vertex 1.725 5 2.22045e-016
      vertex 1.725 0 2.22045e-016
    endloop
  endfacet
  facet normal -0.965926 0.258819 0
    outer loop
      vertex 1.725 0 0.8
      vertex 1.725 0 2.22045e-016
      vertex 1.49389 -0.8625 0.8
    endloop
  endfacet
  facet normal -0.965926 0.258819 0
    outer loop
      vertex 1.49389 -0.8625 0.8
      vertex 1.725 0 2.22045e-016
      vertex 1.49389 -0.8625 2.22045e-016
    endloop
  endfacet
  facet normal -0.707107 0.707107 0
    outer loop
      vertex 1.49389 -0.8625 0.8
      vertex 1.49389 -0.8625 2.22045e-016
      vertex 0.8625 -1.49389 0.8
    endloop
  endfacet
  facet normal -0.707107 0.707107 0
    outer loop
      vertex 0.8625 -1.49389 0.8
      vertex 1.49389 -0.8625 2.22045e-016
      vertex 0.8625 -1.49389 2.22045e-016
    endloop
  endfacet
  facet normal -0.258819 0.965926 0
    outer loop
      vertex 0.8625 -1.49389 0.8
      vertex 0.8625 -1.49389 2.22045e-016
      vertex 0 -1.725 0.8
    endloop
  endfacet
  facet normal -0.258819 0.965926 0
    outer loop
      vertex 0 -1.725 0.8
      vertex 0.8625 -1.49389 2.22045e-016
      vertex 0 -1.725 2.22045e-016
    endloop
  endfacet
  facet normal 0.258819 0.965926 0
    outer loop
      vertex 0 -1.725 0.8
      vertex 0 -1.725 2.22045e-016
      vertex -0.8625 -1.49389 0.8
    endloop
  endfacet
  facet normal 0.258819 0.965926 0
    outer loop
      vertex -0.8625 -1.49389 0.8
      vertex 0 -1.725 2.22045e-016
      vertex -0.8625 -1.49389 2.22045e-016
    endloop
  endfacet
  facet normal 0.707107 0.707107 0
    outer loop
      vertex -0.8625 -1.49389 0.8
      vertex -0.8625 -1.49389 2.22045e-016
      vertex -1.49389 -0.8625 0.8
    endloop
  endfacet
  facet normal 0.707107 0.707107 0
    outer loop
      vertex -1.49389 -0.8625 0.8
      vertex -0.8625 -1.49389 2.22045e-016
      vertex -1.49389 -0.8625 2.22045e-016
    endloop
  endfacet
  facet normal 0.965926 0.258819 0
    outer loop
      vertex -1.725 0 0.8
      vertex -1.49389 -0.8625 0.8
      vertex -1.49389 -0.8625 2.22045e-016
    endloop
  endfacet
  facet normal 0.965926 0.258819 0
    outer loop
      vertex -1.725 0 2.22045e-016
      vertex -1.725 0 0.8
      vertex -1.49389 -0.8625 2.22045e-016
    endloop
  endfacet
  facet normal -0.152868 0.965167 -0.21233
    outer loop
      vertex 12.7 10.7744 3.6
      vertex 12.7 10.6152 2.87616
      vertex 11.8406 10.6383 3.6
    endloop
  endfacet
  facet normal 0.965926 0.258819 0
    outer loop
      vertex -2.9 0 3.6
      vertex -2.51147 -1.45 3.6
      vertex -2.51147 -1.45 0.8
    endloop
  endfacet
  facet normal 0.965926 0.258819 0
    outer loop
      vertex -2.9 0 0.8
      vertex -2.9 0 3.6
      vertex -2.51147 -1.45 0.8
    endloop
  endfacet
  facet normal 1 0 0
    outer loop
      vertex -2.9 5 0.8
      vertex -2.9 5 3.6
      vertex -2.9 0 3.6
    endloop
  endfacet
  facet normal 1 0 0
    outer loop
      vertex -2.9 0 0.8
      vertex -2.9 5 0.8
      vertex -2.9 0 3.6
    endloop
  endfacet
  facet normal 0.707107 0.707107 0
    outer loop
      vertex -1.45 -2.51147 3.6
      vertex -1.45 -2.51147 0.8
      vertex -2.51147 -1.45 3.6
    endloop
  endfacet
  facet normal 0.707107 0.707107 0
    outer loop
      vertex -2.51147 -1.45 3.6
      vertex -1.45 -2.51147 0.8
      vertex -2.51147 -1.45 0.8
    endloop
  endfacet
  facet normal 0.258819 0.965926 0
    outer loop
      vertex 0 -2.9 3.6
      vertex 0 -2.9 0.8
      vertex -1.45 -2.51147 3.6
    endloop
  endfacet
  facet normal 0.258819 0.965926 0
    outer loop
      vertex -1.45 -2.51147 3.6
      vertex 0 -2.9 0.8
      vertex -1.45 -2.51147 0.8
    endloop
  endfacet
  facet normal -0.258819 0.965926 0
    outer loop
      vertex 1.45 -2.51147 3.6
      vertex 1.45 -2.51147 0.8
      vertex 0 -2.9 3.6
    endloop
  endfacet
  facet normal -0.258819 0.965926 0
    outer loop
      vertex 0 -2.9 3.6
      vertex 1.45 -2.51147 0.8
      vertex 0 -2.9 0.8
    endloop
  endfacet
  facet normal -0.707107 0.707107 0
    outer loop
      vertex 2.51147 -1.45 3.6
      vertex 2.51147 -1.45 0.8
      vertex 1.45 -2.51147 3.6
    endloop
  endfacet
  facet normal -0.707107 0.707107 0
    outer loop
      vertex 1.45 -2.51147 3.6
      vertex 2.51147 -1.45 0.8
      vertex 1.45 -2.51147 0.8
    endloop
  endfacet
  facet normal -0.965926 0.258819 0
    outer loop
      vertex 2.9 0 3.6
      vertex 2.9 0 0.8
      vertex 2.51147 -1.45 3.6
    endloop
  endfacet
  facet normal -0.965926 0.258819 0
    outer loop
      vertex 2.51147 -1.45 3.6
      vertex 2.9 0 0.8
      vertex 2.51147 -1.45 0.8
    endloop
  endfacet
  facet normal -1 0 0
    outer loop
      vertex 2.9 5 3.6
      vertex 2.9 5 0.8
      vertex 2.9 0 3.6
    endloop
  endfacet
  facet normal -1 0 0
    outer loop
      vertex 2.9 0 3.6
      vertex 2.9 5 0.8
      vertex 2.9 0 0.8
    endloop
  endfacet
  facet normal -0.965926 -0.258819 0
    outer loop
      vertex 2.9 5 3.6
      vertex 2.51147 6.45 3.6
      vertex 2.9 5 0.8
    endloop
  endfacet
  facet normal -0.965926 -0.258819 0
    outer loop
      vertex 2.9 5 0.8
      vertex 2.51147 6.45 3.6
      vertex 2.51147 6.45 0.8
    endloop
  endfacet
  facet normal -0.707107 -0.707107 0
    outer loop
      vertex 2.51147 6.45 3.6
      vertex 1.45 7.51147 3.6
      vertex 2.51147 6.45 0.8
    endloop
  endfacet
  facet normal -0.707107 -0.707107 0
    outer loop
      vertex 2.51147 6.45 0.8
      vertex 1.45 7.51147 3.6
      vertex 1.45 7.51147 0.8
    endloop
  endfacet
  facet normal -0.258819 -0.965926 0
    outer loop
      vertex 1.45 7.51147 0.8
      vertex 1.45 7.51147 3.6
      vertex 0 7.9 3.6
    endloop
  endfacet
  facet normal -0.258819 -0.965926 0
    outer loop
      vertex 0 7.9 0.8
      vertex 1.45 7.51147 0.8
      vertex 0 7.9 3.6
    endloop
  endfacet
  facet normal 0.258819 -0.965926 0
    outer loop
      vertex 0 7.9 0.8
      vertex 0 7.9 3.6
      vertex -1.45 7.51147 3.6
    endloop
  endfacet
  facet normal 0.258819 -0.965926 0
    outer loop
      vertex -1.45 7.51147 0.8
      vertex 0 7.9 0.8
      vertex -1.45 7.51147 3.6
    endloop
  endfacet
  facet normal 0.707107 -0.707107 0
    outer loop
      vertex -1.45 7.51147 0.8
      vertex -1.45 7.51147 3.6
      vertex -2.51147 6.45 3.6
    endloop
  endfacet
  facet normal 0.707107 -0.707107 0
    outer loop
      vertex -2.51147 6.45 0.8
      vertex -1.45 7.51147 0.8
      vertex -2.51147 6.45 3.6
    endloop
  endfacet
  facet normal 0.965926 -0.258819 0
    outer loop
      vertex -2.51147 6.45 0.8
      vertex -2.51147 6.45 3.6
      vertex -2.9 5 3.6
    endloop
  endfacet
  facet normal 0.965926 -0.258819 0
    outer loop
      vertex -2.9 5 0.8
      vertex -2.51147 6.45 0.8
      vertex -2.9 5 3.6
    endloop
  endfacet
  facet normal 0 0 1
    outer loop
      vertex -2.51147 -1.45 0.8
      vertex -1.45 -2.51147 0.8
      vertex 0 -2.9 0.8
    endloop
  endfacet
  facet normal 0 0 1
    outer loop
      vertex 0 -1.725 0.8
      vertex -2.51147 -1.45 0.8
      vertex 1.45 -2.51147 0.8
    endloop
  endfacet
  facet normal 0 0 1
    outer loop
      vertex 1.45 -2.51147 0.8
      vertex -2.51147 -1.45 0.8
      vertex 0 -2.9 0.8
    endloop
  endfacet
  facet normal 0 0 1
    outer loop
      vertex 1.49389 -0.8625 0.8
      vertex 0.8625 -1.49389 0.8
      vertex 2.51147 -1.45 0.8
    endloop
  endfacet
  facet normal 0 0 1
    outer loop
      vertex -0.8625 -1.49389 0.8
      vertex -1.49389 -0.8625 0.8
      vertex -2.51147 -1.45 0.8
    endloop
  endfacet
  facet normal 0 0 1
    outer loop
      vertex -2.51147 6.45 0.8
      vertex -2.51147 -1.45 0.8
      vertex -1.45 7.51147 0.8
    endloop
  endfacet
  facet normal 0 0 1
    outer loop
      vertex -2.9 5 0.8
      vertex -2.51147 -1.45 0.8
      vertex -2.51147 6.45 0.8
    endloop
  endfacet
  facet normal 0 0 1
    outer loop
      vertex -2.9 0 0.8
      vertex -2.51147 -1.45 0.8
      vertex -2.9 5 0.8
    endloop
  endfacet
  facet normal 0 0 1
    outer loop
      vertex 0.8625 6.49389 0.8
      vertex 1.49389 5.8625 0.8
      vertex 1.45 7.51147 0.8
    endloop
  endfacet
  facet normal 0 0 1
    outer loop
      vertex -1.45 7.51147 0.8
      vertex -2.51147 -1.45 0.8
      vertex -1.725 5 0.8
    endloop
  endfacet
  facet normal 0 0 1
    outer loop
      vertex -1.45 7.51147 0.8
      vertex -1.49389 5.8625 0.8
      vertex 0 7.9 0.8
    endloop
  endfacet
  facet normal 0 0 1
    outer loop
      vertex -1.45 7.51147 0.8
      vertex -1.725 5 0.8
      vertex -1.49389 5.8625 0.8
    endloop
  endfacet
  facet normal 0 0 1
    outer loop
      vertex -1.49389 5.8625 0.8
      vertex -0.8625 6.49389 0.8
      vertex 0 7.9 0.8
    endloop
  endfacet
  facet normal 0 0 1
    outer loop
      vertex 0 7.9 0.8
      vertex 0 6.725 0.8
      vertex 1.45 7.51147 0.8
    endloop
  endfacet
  facet normal 0 0 1
    outer loop
      vertex -0.8625 6.49389 0.8
      vertex 0 6.725 0.8
      vertex 0 7.9 0.8
    endloop
  endfacet
  facet normal 0 0 1
    outer loop
      vertex 0 6.725 0.8
      vertex 0.8625 6.49389 0.8
      vertex 1.45 7.51147 0.8
    endloop
  endfacet
  facet normal 0 0 1
    outer loop
      vertex 1.725 5 0.8
      vertex 1.725 0 0.8
      vertex 2.9 5 0.8
    endloop
  endfacet
  facet normal 0 0 1
    outer loop
      vertex 1.45 7.51147 0.8
      vertex 1.49389 5.8625 0.8
      vertex 2.51147 6.45 0.8
    endloop
  endfacet
  facet normal 0 0 1
    outer loop
      vertex 2.51147 6.45 0.8
      vertex 1.725 5 0.8
      vertex 2.9 5 0.8
    endloop
  endfacet
  facet normal 0 0 1
    outer loop
      vertex 2.9 5 0.8
      vertex 1.725 0 0.8
      vertex 2.9 0 0.8
    endloop
  endfacet
  facet normal 0 0 1
    outer loop
      vertex 2.9 0 0.8
      vertex 1.49389 -0.8625 0.8
      vertex 2.51147 -1.45 0.8
    endloop
  endfacet
  facet normal 0 0 1
    outer loop
      vertex -1.49389 -0.8625 0.8
      vertex -1.725 0 0.8
      vertex -2.51147 -1.45 0.8
    endloop
  endfacet
  facet normal 0 0 1
    outer loop
      vertex 2.51147 -1.45 0.8
      vertex 0.8625 -1.49389 0.8
      vertex 1.45 -2.51147 0.8
    endloop
  endfacet
  facet normal 0 0 1
    outer loop
      vertex 0.8625 -1.49389 0.8
      vertex 0 -1.725 0.8
      vertex 1.45 -2.51147 0.8
    endloop
  endfacet
  facet normal 0 0 1
    outer loop
      vertex -0.8625 -1.49389 0.8
      vertex -2.51147 -1.45 0.8
      vertex 0 -1.725 0.8
    endloop
  endfacet
  facet normal 0 0 1
    outer loop
      vertex 1.725 0 0.8
      vertex 1.49389 -0.8625 0.8
      vertex 2.9 0 0.8
    endloop
  endfacet
  facet normal 0 0 1
    outer loop
      vertex 1.49389 5.8625 0.8
      vertex 1.725 5 0.8
      vertex 2.51147 6.45 0.8
    endloop
  endfacet
  facet normal 0 0 1
    outer loop
      vertex -1.725 0 0.8
      vertex -1.725 5 0.8
      vertex -2.51147 -1.45 0.8
    endloop
  endfacet
endsolid OpenSCAD_Model
